<svg width="20" height="20" viewBox="0 0 20 20" fill="none" xmlns="http://www.w3.org/2000/svg">
<path d="M15.8334 1.66675H8.33342C7.67037 1.66675 7.03449 1.93014 6.56565 2.39898C6.09681 2.86782 5.83342 3.50371 5.83342 4.16675V5.83342H4.16675C3.50371 5.83342 2.86782 6.09681 2.39898 6.56565C1.93014 7.03449 1.66675 7.67037 1.66675 8.33342V15.8334C1.66675 16.4965 1.93014 17.1323 2.39898 17.6012C2.86782 18.07 3.50371 18.3334 4.16675 18.3334H11.6667C12.3298 18.3334 12.9657 18.07 13.4345 17.6012C13.9034 17.1323 14.1667 16.4965 14.1667 15.8334V14.1667H15.8334C16.4965 14.1667 17.1323 13.9034 17.6012 13.4345C18.07 12.9657 18.3334 12.3298 18.3334 11.6667V4.16675C18.3334 3.50371 18.07 2.86782 17.6012 2.39898C17.1323 1.93014 16.4965 1.66675 15.8334 1.66675ZM16.6667 11.6667C16.6667 11.8878 16.579 12.0997 16.4227 12.256C16.2664 12.4123 16.0544 12.5001 15.8334 12.5001H14.1667V8.33342C14.1667 7.67037 13.9034 7.03449 13.4345 6.56565C12.9657 6.09681 12.3298 5.83342 11.6667 5.83342H7.50008V4.16675C7.50008 3.94573 7.58788 3.73377 7.74416 3.57749C7.90044 3.42121 8.1124 3.33341 8.33342 3.33341H15.8334C16.0544 3.33341 16.2664 3.42121 16.4227 3.57749C16.579 3.73377 16.6667 3.94573 16.6667 4.16675V11.6667Z" fill="#707070"/>
</svg>
