<svg width="21" height="20" viewBox="0 0 21 20" fill="none" xmlns="http://www.w3.org/2000/svg">
<path d="M17.9893 3.7502H13.5518C13.4083 3.04377 13.0251 2.40866 12.4669 1.95247C11.9088 1.49628 11.2101 1.24707 10.4893 1.24707C9.76841 1.24707 9.06973 1.49628 8.5116 1.95247C7.95346 2.40866 7.5702 3.04377 7.42676 3.7502H2.98926C2.8235 3.7502 2.66453 3.81605 2.54732 3.93326C2.43011 4.05047 2.36426 4.20944 2.36426 4.3752C2.36426 4.54096 2.43011 4.69993 2.54732 4.81714C2.66453 4.93435 2.8235 5.0002 2.98926 5.0002H4.23926V15.6252C4.23926 16.454 4.5685 17.2489 5.15455 17.8349C5.7406 18.421 6.53546 18.7502 7.36426 18.7502H13.6143C14.4431 18.7502 15.2379 18.421 15.824 17.8349C16.41 17.2489 16.7393 16.454 16.7393 15.6252V5.0002H17.9893C18.155 5.0002 18.314 4.93435 18.4312 4.81714C18.5484 4.69993 18.6143 4.54096 18.6143 4.3752C18.6143 4.20944 18.5484 4.05047 18.4312 3.93326C18.314 3.81605 18.155 3.7502 17.9893 3.7502ZM10.4893 2.5002C10.8761 2.50129 11.2531 2.622 11.5687 2.84579C11.8842 3.06958 12.1228 3.38548 12.2518 3.7502H8.72676C8.8557 3.38548 9.0943 3.06958 9.40984 2.84579C9.72538 2.622 10.1024 2.50129 10.4893 2.5002ZM15.4893 15.6252C15.4893 16.1225 15.2917 16.5994 14.9401 16.951C14.5885 17.3027 14.1115 17.5002 13.6143 17.5002H7.36426C6.86698 17.5002 6.39006 17.3027 6.03843 16.951C5.6868 16.5994 5.48926 16.1225 5.48926 15.6252V5.0002H15.4893V15.6252ZM9.23926 8.7502V13.7502C9.23926 13.916 9.17341 14.0749 9.0562 14.1921C8.93899 14.3094 8.78002 14.3752 8.61426 14.3752C8.4485 14.3752 8.28953 14.3094 8.17232 14.1921C8.05511 14.0749 7.98926 13.916 7.98926 13.7502V8.7502C7.98926 8.58444 8.05511 8.42547 8.17232 8.30826C8.28953 8.19105 8.4485 8.1252 8.61426 8.1252C8.78002 8.1252 8.93899 8.19105 9.0562 8.30826C9.17341 8.42547 9.23926 8.58444 9.23926 8.7502ZM12.9893 8.7502V13.7502C12.9893 13.916 12.9234 14.0749 12.8062 14.1921C12.689 14.3094 12.53 14.3752 12.3643 14.3752C12.1985 14.3752 12.0395 14.3094 11.9223 14.1921C11.8051 14.0749 11.7393 13.916 11.7393 13.7502V8.7502C11.7393 8.58444 11.8051 8.42547 11.9223 8.30826C12.0395 8.19105 12.1985 8.1252 12.3643 8.1252C12.53 8.1252 12.689 8.19105 12.8062 8.30826C12.9234 8.42547 12.9893 8.58444 12.9893 8.7502Z" fill="white"/>
</svg>
