<svg width="77" height="108" viewBox="0 0 77 108" fill="none" xmlns="http://www.w3.org/2000/svg">
<g clip-path="url(#clip0_15_3345)">
<path fill-rule="evenodd" clip-rule="evenodd" d="M38.5008 92.1845C17.2362 92.1845 0 75.0897 0 53.9996C0 43.3426 4.40562 33.7051 11.5045 26.7788L11.4156 26.8622L38.5008 0V15.8164V27.2248V92.1845Z" fill="black"/>
<path fill-rule="evenodd" clip-rule="evenodd" d="M38.5008 15.8163C59.7638 15.8163 77 32.9111 77 53.9996C77 64.6598 72.5944 74.2949 65.4955 81.2228L65.5844 81.1378L38.5008 108V92.1845V80.7743V15.8163Z" fill="#BABABA"/>
<path fill-rule="evenodd" clip-rule="evenodd" d="M54.9818 58.4385C52.5109 58.4385 50.5069 56.451 50.5069 53.9996C50.5069 51.549 52.5109 49.5623 54.9818 49.5623C57.4518 49.5623 59.4557 51.549 59.4557 53.9996C59.4557 56.451 57.4518 58.4385 54.9818 58.4385ZM38.5008 58.4385C36.0283 58.4385 34.0252 56.451 34.0252 53.9996C34.0252 51.549 36.0283 49.5623 38.5008 49.5623C40.9709 49.5623 42.9748 51.549 42.9748 53.9996C42.9748 56.451 40.9717 58.4385 38.5008 58.4385ZM22.0191 58.4385C19.5482 58.4385 17.5451 56.451 17.5451 53.9996C17.5451 51.549 19.5482 49.5623 22.0191 49.5623C24.49 49.5623 26.4947 51.549 26.4947 53.9996C26.4947 56.451 24.49 58.4385 22.0191 58.4385Z" fill="white"/>
</g>
<defs>
<clipPath id="clip0_15_3345">
<rect width="77" height="108" fill="white"/>
</clipPath>
</defs>
</svg>
