<svg width="20" height="20" viewBox="0 0 20 20" fill="none" xmlns="http://www.w3.org/2000/svg">
<path d="M11.6667 10.8337C11.6667 11.7503 10.9167 12.5003 10 12.5003C9.08337 12.5003 8.33337 11.7503 8.33337 10.8337C8.33337 9.91699 9.08337 9.16699 10 9.16699C10.9167 9.16699 11.6667 9.91699 11.6667 10.8337ZM17.9167 9.16699V13.3337C17.9167 15.4003 16.2334 17.0837 14.1667 17.0837H5.83337C3.76671 17.0837 2.08337 15.4003 2.08337 13.3337V9.16699C2.08337 7.17533 3.64172 5.542 5.60838 5.42533L6.65837 3.84208C7.05003 3.26708 7.69171 2.91699 8.39171 2.91699H11.6084C12.3084 2.91699 12.95 3.26708 13.3417 3.84208L14.3917 5.42533C16.3584 5.542 17.9167 7.17533 17.9167 9.16699ZM13.3334 10.8337C13.3334 8.99199 11.8417 7.50033 10 7.50033C8.15837 7.50033 6.66671 8.99199 6.66671 10.8337C6.66671 12.6753 8.15837 14.167 10 14.167C11.8417 14.167 13.3334 12.6753 13.3334 10.8337ZM15.8334 8.33366C15.8334 7.87533 15.4584 7.50033 15 7.50033C14.5417 7.50033 14.1667 7.87533 14.1667 8.33366C14.1667 8.79199 14.5417 9.16699 15 9.16699C15.4584 9.16699 15.8334 8.79199 15.8334 8.33366Z" fill="white"/>
</svg>
