<svg width="20" height="20" viewBox="0 0 20 20" fill="none" xmlns="http://www.w3.org/2000/svg">
<path d="M15.8333 1.66675H8.33329C7.67025 1.66675 7.03437 1.93014 6.56553 2.39898C6.09668 2.86782 5.83329 3.50371 5.83329 4.16675V5.83342H4.16663C3.50358 5.83342 2.8677 6.09681 2.39886 6.56565C1.93002 7.03449 1.66663 7.67037 1.66663 8.33342V15.8334C1.66663 16.4965 1.93002 17.1323 2.39886 17.6012C2.8677 18.07 3.50358 18.3334 4.16663 18.3334H11.6666C12.3297 18.3334 12.9656 18.07 13.4344 17.6012C13.9032 17.1323 14.1666 16.4965 14.1666 15.8334V14.1667H15.8333C16.4963 14.1667 17.1322 13.9034 17.6011 13.4345C18.0699 12.9657 18.3333 12.3298 18.3333 11.6667V4.16675C18.3333 3.50371 18.0699 2.86782 17.6011 2.39898C17.1322 1.93014 16.4963 1.66675 15.8333 1.66675ZM16.6666 11.6667C16.6666 11.8878 16.5788 12.0997 16.4225 12.256C16.2663 12.4123 16.0543 12.5001 15.8333 12.5001H14.1666V8.33342C14.1666 7.67037 13.9032 7.03449 13.4344 6.56565C12.9656 6.09681 12.3297 5.83342 11.6666 5.83342H7.49996V4.16675C7.49996 3.94573 7.58776 3.73377 7.74404 3.57749C7.90032 3.42121 8.11228 3.33341 8.33329 3.33341H15.8333C16.0543 3.33341 16.2663 3.42121 16.4225 3.57749C16.5788 3.73377 16.6666 3.94573 16.6666 4.16675V11.6667Z" fill="#707070"/>
</svg>
