<svg width="140" height="140" viewBox="0 0 140 140" fill="none" xmlns="http://www.w3.org/2000/svg">
<path d="M16.9147 15.9819C11.0016 15.9819 6.20801 20.7756 6.20801 26.6887C6.20801 32.6017 11.0016 37.3954 16.9147 37.3954V49.9888C11.0016 49.9888 6.20801 54.7824 6.20801 60.6955C6.20801 66.6086 11.0016 71.4022 16.9147 71.4022C11.0016 71.4022 6.20801 76.1959 6.20801 82.109C6.20801 88.0221 11.0016 92.8157 16.9147 92.8157V15.9819Z" fill="#FFCBBE"/>
<path d="M132.053 107.457C130.496 111.773 128.223 115.853 125.392 119.565H125.389C113.352 135.344 91.2117 144.553 71.0881 137.711C55.0209 132.247 45.7114 111.858 45.7114 111.858C45.7114 111.858 43.2114 99.9929 33.331 94.9961C30.6948 93.66 27.5366 92.817 23.7588 92.817L99.1337 43.8731C100.7 37.5531 107.091 33.7075 113.408 35.2738C119.728 36.8433 123.577 43.2376 122.007 49.551C120.256 56.6134 121.355 63.9385 125.113 70.1772C125.113 70.1772 138.457 89.6977 132.053 107.457Z" fill="#FFDDCE"/>
<path d="M125.389 119.565C113.352 135.344 91.2118 144.553 71.0881 137.711C55.0209 132.247 45.7115 111.858 45.7115 111.858C45.7115 111.858 43.2114 99.9929 33.3311 94.9961L35.8636 89.2826L93.6599 89.7138C88.0536 104.811 99.3184 125.263 125.389 119.565Z" fill="#FFCBBE"/>
<path d="M90.4595 120.714C70.2949 122.848 50.1302 122.848 29.9656 120.714C22.7326 119.949 17.0981 114.096 16.6347 106.837C14.6908 76.384 14.6908 45.931 16.6347 15.4777C17.0979 8.21904 22.7326 2.36638 29.9656 1.60076C50.1302 -0.533423 70.2949 -0.533423 90.4595 1.60076C97.6925 2.36638 103.327 8.21904 103.79 15.4777C105.734 45.931 105.734 76.384 103.79 106.837C103.327 114.096 97.6927 119.949 90.4595 120.714Z" fill="#26457D"/>
<path d="M28.2843 120.448C21.8588 119.037 17.0279 113.535 16.6025 106.837C14.6589 76.3832 14.6589 45.9324 16.6025 15.4788C17.0279 8.78018 21.8588 3.27889 28.2843 1.86768C25.0418 4.55174 22.9066 8.50674 22.6222 12.9657C20.5714 45.0924 20.5714 77.2221 22.6222 109.349C22.9066 113.808 25.0418 117.763 28.2843 120.448Z" fill="#21386B"/>
<path d="M96.3075 98.9937C95.9236 105.006 91.2574 109.854 85.2672 110.489C68.564 112.256 51.8608 112.256 35.16 110.489C29.1674 109.854 24.5012 105.006 24.1172 98.9937C22.5078 73.7702 22.5078 48.5445 24.1172 23.321C24.5012 17.3086 29.1674 12.4603 35.16 11.8254C37.114 11.6187 39.0658 11.4366 41.0198 11.2791C41.6965 13.9246 43.9584 15.9354 46.759 16.2332C55.7272 17.1807 64.6976 17.1807 73.6658 16.2332C76.4666 15.9354 78.7282 13.9248 79.4049 11.2791C81.3589 11.4366 83.3132 11.6187 85.2672 11.8254C91.2574 12.4603 95.9236 17.3086 96.3075 23.321C97.9194 48.5445 97.9194 73.7705 96.3075 98.9937Z" fill="#19A9F9"/>
<path d="M69.2968 10.4806H51.1282C49.9614 10.4806 49.0156 9.53483 49.0156 8.36807C49.0156 7.20131 49.9614 6.25549 51.1282 6.25549H69.2968C70.4635 6.25549 71.4096 7.20131 71.4096 8.36807C71.4096 9.53483 70.4638 10.4806 69.2968 10.4806Z" fill="#21386B"/>
<path d="M108.434 88.6365C97.3529 75.0628 95.8615 57.0471 99.1332 43.8726C100.699 37.5545 107.091 33.7059 113.409 35.2749C119.727 36.8439 123.576 43.2357 122.007 49.5505C120.255 56.6145 121.356 63.9385 125.113 70.1759L108.434 88.6365Z" fill="#FFDDCE"/>
<path d="M108.433 88.6368C97.3531 75.0631 95.8615 57.0471 99.1332 43.8726C100.699 37.5526 107.09 33.707 113.407 35.2733C113.741 35.3575 114.069 35.4515 114.39 35.5617C110.732 36.8133 107.768 39.8389 106.769 43.8726C104.239 54.0581 104.557 67.138 109.953 78.8228C111.465 82.0967 110.85 85.9607 108.433 88.6368Z" fill="#FFCBBE"/>
<g clip-path="url(#clip0_15_3686)">
<path d="M73.5 55H72V49C72 42.3818 66.6182 37 60 37C53.3818 37 48 42.3818 48 49V55H46.5C44.02 55 42 57.0178 42 59.5V80.5C42 82.9822 44.02 85 46.5 85H73.5C75.98 85 78 82.9822 78 80.5V59.5C78 57.0178 75.98 55 73.5 55ZM52.0001 49C52.0001 44.5879 55.5879 41.0001 60 41.0001C64.4121 41.0001 67.9999 44.5879 67.9999 49V55H52.0001V49Z" fill="white"/>
</g>
<defs>
<clipPath id="clip0_15_3686">
<rect width="48" height="48" fill="white" transform="translate(36 37)"/>
</clipPath>
</defs>
</svg>
