<svg width="24" height="24" viewBox="0 0 24 24" fill="none" xmlns="http://www.w3.org/2000/svg">
<path d="M21.0836 3.8748L21.0836 3.87486L21.0915 3.88236C21.7855 4.5349 22.15 5.38582 22.15 6.29482C22.15 7.20376 21.7856 8.05444 21.0915 8.70702L21.0915 8.70701L21.0876 8.71079L20.3366 9.42605L15.2033 4.53675L15.8943 3.87859L15.8943 3.87861L15.8983 3.8748C16.5847 3.21254 17.4978 2.85 18.4909 2.85C19.4841 2.85 20.3972 3.21254 21.0836 3.8748ZM4.24603 14.9628L12.4012 7.20517L17.5352 12.0952L9.45032 19.8056C9.17076 20.0718 8.80989 20.2507 8.40711 20.319L3.17616 21.1495C3.17102 21.1496 3.15547 21.15 3.11828 21.15C3.05198 21.15 2.97377 21.12 2.91984 21.0687C2.86032 21.012 2.84484 20.9442 2.85155 20.8979L3.72265 15.9196C3.78994 15.5607 3.96729 15.2284 4.24584 14.963C4.24591 14.963 4.24597 14.9629 4.24603 14.9628Z" stroke="black" stroke-width="1.7"/>
</svg>
