<svg width="414" height="896" viewBox="0 0 414 896" fill="none" xmlns="http://www.w3.org/2000/svg">
<g clip-path="url(#clip0_6_273)">
<path d="M6.51097 132.453C2.77203 132.453 -2.5103 134.845 -6.4014 146.192C-10.7707 158.974 -2.35813 161.931 6.55445 165.083C8.11959 165.626 9.7282 166.213 11.2933 166.844C14.7932 168.257 17.7495 168.974 20.0538 168.974C22.6188 168.974 24.4666 168.105 25.5317 166.409C28.8576 161.127 23.5318 149.453 21.0754 144.692C17.1409 137.018 11.6846 132.453 6.51097 132.453ZM24.6187 165.822C22.8797 168.583 18.4886 168.561 11.6846 165.844C10.0977 165.213 8.46739 164.627 6.90225 164.083C-1.83643 160.996 -9.40125 158.322 -5.37971 146.562C-2.46682 138.04 1.64166 133.54 6.48924 133.54C11.2499 133.54 16.3365 137.888 20.0972 145.17C25.0535 154.779 26.7273 162.496 24.6187 165.822Z" fill="#E8E8E8" fill-opacity="0.11"/>
<path d="M51.5739 13.0214C52.6608 8.63023 53.7259 4.30425 54.7259 0H53.6173C52.639 4.21729 51.5956 8.45632 50.5304 12.7606C48.5305 20.8256 46.4654 29.1515 44.7916 37.673C39.2267 66.0419 34.4226 103.237 46.835 139.323C51.8782 153.996 64.4645 165.974 75.5509 176.539C85.42 185.952 93.9413 194.082 93.1804 200.908C92.8326 204.039 90.5284 206.843 86.1591 209.452C84.1374 210.647 80.7028 211.256 75.9204 211.256C59.2257 211.256 29.7924 203.886 8.0109 196.582C-15.6835 188.648 -44.856 175.996 -49.3775 160.822C-50.8122 155.996 -49.6383 151.105 -45.8559 146.323C-41.0083 140.171 -35.8129 134.779 -30.7915 129.54C-20.9007 119.258 -11.5533 109.541 -5.35798 95.1282C3.46766 74.5634 4.53281 53.1074 -2.18423 31.3688C-3.81458 26.1081 -5.44493 21.2604 -6.90137 16.9779C-9.00996 10.6519 -10.8794 5.13031 -12.1402 0H-13.2706C-11.9881 5.23901 -10.0969 10.8693 -7.90132 17.3257C-6.46661 21.6082 -4.81452 26.4342 -3.20591 31.6949C3.42419 53.1726 2.35902 74.3678 -6.35793 94.6934C-12.4663 108.932 -21.7484 118.584 -31.574 128.78C-36.6172 134.019 -41.8344 139.453 -46.7254 145.649C-50.7252 150.736 -51.986 155.953 -50.4426 161.148C-45.7907 176.757 -16.2705 189.604 7.64136 197.626C29.5098 204.952 59.0735 212.343 75.8987 212.343C80.8767 212.343 84.507 211.691 86.7025 210.386C91.3762 207.604 93.8543 204.539 94.2456 201.039C95.0717 193.669 86.3764 185.365 76.29 175.757C65.2906 165.279 52.813 153.388 47.8567 138.953C35.5312 103.106 40.3136 66.0854 45.8568 37.8687C47.5306 29.3906 49.5957 21.0647 51.5739 13.0214Z" fill="#E8E8E8" fill-opacity="0.11"/>
<path d="M35.0312 0.130432C35.0747 0.0869545 35.0965 0.0434772 35.1399 0H34.2487C32.8792 1.45649 31.5097 2.97819 30.5532 5.19553C27.8577 11.5432 28.6185 18.1517 29.3576 24.5429C29.7706 28.108 30.2054 31.7819 30.0315 35.3905C29.7489 41.0642 28.5968 46.9337 27.4881 52.6292C26.5752 57.3247 25.6187 62.1724 25.1622 66.9115C22.3797 95.6716 24.9013 121.671 32.6401 144.192C34.2487 148.866 40.5527 156.062 47.2263 163.67C55.7476 173.409 64.5732 183.474 64.921 189.582C65.008 190.952 64.6602 192.017 63.8559 192.865C61.5516 195.3 55.378 195.756 45.4872 194.191C38.3137 193.061 31.401 190.061 24.7274 187.148C20.8363 185.452 16.7931 183.691 12.7715 182.343C11.6411 181.952 10.4673 181.583 9.24996 181.17C-5.20582 176.409 -24.9874 169.866 -27.8351 158.431C-29.1828 152.975 -26.5308 146.736 -19.9442 139.888C-9.57517 129.106 1.16342 117.954 8.42392 101.019C15.3801 84.7806 23.4014 53.1944 20.3363 36.1078C19.7059 32.6079 18.2495 30.2384 16.8365 27.9559C14.9453 24.8907 13.1628 21.9995 13.9671 16.7605C14.5758 12.891 16.0757 10.6302 17.4017 8.65197C18.9886 6.26072 20.3798 4.08686 19.9885 0H19.3364C19.7277 3.89121 18.4234 5.9129 16.8583 8.30415C15.4888 10.3476 13.9454 12.6736 13.3367 16.6735C12.4889 22.1516 14.3366 25.1516 16.2931 28.3037C17.6843 30.5428 19.0973 32.847 19.7059 36.2383C22.7493 53.2161 14.7714 84.6284 7.83698 100.78C0.619961 117.606 -10.0751 128.714 -20.4007 139.453C-27.1395 146.475 -29.8567 152.909 -28.4438 158.605C-25.5309 170.387 -5.5319 176.996 9.07605 181.822C10.2934 182.213 11.4672 182.604 12.5976 182.996C16.5974 184.343 20.6189 186.083 24.4883 187.778C31.2054 190.691 38.1398 193.713 45.4003 194.865C49.2914 195.474 52.639 195.8 55.378 195.8C59.856 195.8 62.7907 194.995 64.3341 193.343C65.2471 192.365 65.6601 191.104 65.5732 189.582C65.2036 183.257 56.3128 173.105 47.7045 163.279C41.0744 155.714 34.8139 148.562 33.2487 144.018C25.5317 121.584 23.0319 95.6716 25.7926 67.0201C26.2491 62.3246 27.2056 57.4769 28.1186 52.8031C29.2489 47.0858 30.401 41.1947 30.6619 35.4774C30.8358 31.8253 30.401 28.108 29.988 24.5212C29.2272 17.9126 28.4881 11.6954 31.1401 5.49987C32.1401 3.19558 33.6183 1.6304 35.0312 0.130432Z" fill="#E8E8E8" fill-opacity="0.11"/>
<path d="M106.136 762.091C134.983 758.808 165.916 725.396 166.307 697.092C166.916 653.702 141.982 619.029 117.853 585.508C113.766 579.812 109.527 573.921 105.528 568.139L103.115 564.661C91.7675 548.313 78.8986 529.77 74.7031 509.749C71.1598 492.771 65.7471 453.272 71.6381 439.62C75.9639 429.62 88.2677 423.903 100.158 418.381C108.375 414.555 116.136 410.947 121.592 406.012L121.853 405.773C140.504 388.882 140.504 388.882 153.221 388.447C157.068 388.317 161.851 388.143 168.611 387.513C177.676 386.665 183.024 385.339 186.936 384.382C189.415 383.774 191.219 383.317 192.806 383.317C196.719 383.317 200.001 386.1 210.848 395.273C242.912 422.425 242.303 469.641 241.738 515.314C240.999 572.769 240.238 632.202 305.278 651.006C314.626 653.702 323.734 655.093 332.342 655.093C356.797 655.093 377.601 644.159 392.535 623.507C414.447 593.182 420.272 545.878 407.012 505.771C376.427 413.208 303.344 360.274 224.739 309.84C153.286 263.994 85.2461 251.364 27.0534 243.125C22.8362 242.538 18.8364 242.233 15.141 242.233C-8.44478 242.233 -19.6616 254.233 -33.8565 269.428C-39.291 275.254 -44.9212 281.254 -51.8991 287.406C-59.8987 294.428 -70.0503 299.232 -79.8976 303.884C-95.9403 311.471 -111.092 318.623 -117.352 334.557C-130.634 368.361 -98.0054 394.686 -69.2025 417.925C-55.8771 428.685 -43.2908 438.837 -35.8999 448.989C-6.66226 489.249 -15.401 557.139 -41.9213 595.29C-50.2035 607.203 -66.0723 621.92 -82.8757 637.528C-110.7 663.354 -142.242 692.636 -147.807 717.222C-150.416 728.787 -149.742 736.874 -145.72 741.917C-142.351 746.134 -136.677 748.178 -128.373 748.178C-114.7 748.178 -95.136 742.548 -74.4196 736.591C-49.0949 729.309 -20.379 721.048 4.09805 721.048C15.7714 721.048 25.4448 722.852 33.64 726.591C43.0743 730.896 51.0739 737.091 58.7909 743.113C71.5511 753.026 83.5939 762.395 100.637 762.395C102.441 762.395 104.289 762.286 106.136 762.091ZM34.0965 725.613C25.7491 721.809 15.9453 719.961 4.09805 719.961C-20.5311 719.961 -49.334 728.244 -74.724 735.548C-95.3751 741.482 -114.874 747.091 -128.395 747.091C-136.351 747.091 -141.742 745.178 -144.873 741.243C-148.677 736.483 -149.307 728.7 -146.764 717.483C-141.264 693.223 -109.853 664.071 -82.1584 638.333C-65.3114 622.703 -49.3992 607.92 -41.0518 595.921C-14.314 557.465 -5.53189 488.988 -35.0521 448.359C-42.5082 438.098 -55.1598 427.881 -68.5504 417.077C-97.0489 394.078 -129.352 367.991 -116.374 334.949C-110.266 319.427 -95.3099 312.34 -79.4629 304.862C-69.5503 300.189 -59.3117 295.341 -51.2034 288.211C-44.1821 282.037 -38.5302 275.993 -33.074 270.168C-19.0529 255.168 -7.98828 243.32 15.141 243.32C18.793 243.32 22.7493 243.625 26.9012 244.212C84.9635 252.429 152.873 265.037 224.152 310.775C302.583 361.1 375.514 413.903 405.99 506.14C419.142 545.944 413.381 592.856 391.665 622.898C376.948 643.267 356.428 654.028 332.342 654.028C323.842 654.028 314.843 652.68 305.583 649.985C276.78 641.659 258.542 624.529 249.868 597.66C242.086 573.595 242.477 543.987 242.847 515.357C243.434 469.445 244.042 421.968 211.587 394.469C196.088 381.339 195.653 381.121 186.697 383.339C182.828 384.295 177.502 385.6 168.524 386.447C161.807 387.078 157.025 387.252 153.199 387.382C140.091 387.839 140.091 387.839 121.136 404.99L120.875 405.23C115.549 410.055 107.854 413.642 99.7018 417.425C87.6155 423.033 75.1161 428.859 70.6381 439.229C64.6384 453.12 70.0729 492.901 73.638 510.01C77.8551 530.248 90.7892 548.878 102.202 565.334L104.615 568.813C108.614 574.595 112.853 580.486 116.962 586.182C140.982 619.572 165.829 654.071 165.22 697.114C164.829 724.961 134.396 757.808 106.006 761.047C104.202 761.243 102.397 761.352 100.658 761.352C83.9853 761.352 72.0946 752.091 59.4865 742.308C51.7043 736.222 43.6612 729.961 34.0965 725.613Z" fill="#E8E8E8" fill-opacity="0.11"/>
<path d="M565.852 86.8023C563.004 86.8023 560.222 86.7805 557.483 86.7588C554.852 86.7371 552.266 86.7153 549.722 86.7153C534.897 86.7153 523.093 87.5197 510.094 91.4544C503.29 93.5195 496.921 96.7586 490.747 99.9107C480.465 105.15 470.726 110.106 459.096 110.106C457.162 110.106 455.205 109.976 453.292 109.693C444.706 108.454 438.293 103.389 432.076 98.4977C425.098 92.9978 418.49 87.8023 409.251 87.8023C408.403 87.8023 407.556 87.8457 406.686 87.9327C400.969 88.5196 391.839 93.6499 382.992 98.6281C377.296 101.824 371.927 104.845 368.123 106.237C362.58 108.28 358.428 109.258 355.406 109.997C346.276 112.171 345.124 112.976 340.668 129.801C339.45 134.453 338.559 138.801 337.69 142.997C334.494 158.605 331.973 170.931 315.343 182.691C304.126 190.604 289.888 194.474 271.802 194.474C253.89 194.474 235.173 190.735 218.652 187.409C210.022 185.669 201.849 184.039 195.806 183.409C192.284 183.039 186.85 182.8 181.285 182.8C165.329 182.8 146.634 188.648 145.33 197.017C144.721 200.995 147.808 206.952 166.111 212.799L168.155 213.451C237.869 235.82 286.497 264.994 335.972 314.166C349.624 327.731 360.058 334.057 368.775 334.057C370.818 334.057 372.84 333.688 374.731 332.992C384.013 329.536 390.774 317.819 398.621 304.254C402.665 297.254 407.251 289.319 412.686 281.667C438.945 244.668 476.617 217.625 518.767 205.539C531.201 201.973 543.353 200.169 554.852 200.169C592.394 200.169 618.893 218.56 643.978 237.473V236.103C618.936 217.256 592.437 199.082 554.852 199.082C543.244 199.082 531.006 200.908 518.463 204.495C476.074 216.647 438.184 243.842 411.795 281.037C406.338 288.711 401.751 296.689 397.686 303.71C389.948 317.101 383.274 328.644 374.362 331.97C372.579 332.644 370.71 332.97 368.775 332.97C360.341 332.97 350.167 326.753 336.733 313.406C287.127 264.102 238.369 234.842 168.481 212.43L166.438 211.778C152.743 207.408 145.634 202.213 146.417 197.213C147.504 190.256 164.133 183.909 181.306 183.909C186.828 183.909 192.219 184.126 195.719 184.496C201.718 185.126 209.87 186.756 218.478 188.496C235.043 191.822 253.824 195.582 271.845 195.582C290.149 195.582 304.604 191.669 316.017 183.604C332.994 171.583 335.559 159.061 338.798 143.236C339.668 139.04 340.537 134.714 341.776 130.084C346.189 113.323 347.102 113.106 355.71 111.063C358.775 110.345 362.949 109.345 368.558 107.28C372.449 105.845 377.861 102.802 383.579 99.5846C391.904 94.9108 401.36 89.5848 406.838 89.0196C407.664 88.9327 408.49 88.8892 409.295 88.8892C418.164 88.8892 424.62 93.976 431.467 99.3455C437.793 104.324 444.336 109.476 453.205 110.758C455.184 111.041 457.205 111.193 459.183 111.193C471.074 111.193 481.378 105.954 491.312 100.889C497.442 97.7803 503.768 94.5412 510.463 92.5195C523.354 88.6066 535.049 87.824 549.766 87.824C552.309 87.824 554.874 87.8457 557.504 87.8675C560.243 87.8892 563.026 87.911 565.874 87.911C579.156 87.911 591.024 89.4544 602.198 92.65C616.306 96.6716 630.153 102.302 644.022 108.867V107.671C630.262 101.193 616.523 95.6064 602.502 91.6065C591.198 88.3675 579.221 86.8023 565.852 86.8023Z" fill="#E8E8E8" fill-opacity="0.11"/>
<path d="M565.852 108.758C547.57 108.758 528.136 112.063 507.507 115.584C484.313 119.541 460.314 123.628 434.772 123.628C432.924 123.628 431.098 123.606 429.359 123.562C420.49 123.345 412.968 121.888 406.338 120.606C400.599 119.497 395.643 118.519 390.883 118.519C379.579 118.519 371.275 124.475 362.21 139.04C357.841 146.062 354.645 154.475 351.558 162.583C346.102 176.952 340.45 191.822 327.994 200.626C323.712 203.647 315.495 205.995 306.8 208.495C291.605 212.843 274.389 217.756 272.041 228.016C269.128 240.886 295.54 258.472 309.735 267.928C312.365 269.689 314.647 271.211 316.147 272.298C332.799 284.515 346.559 292.645 359.645 292.645C361.427 292.645 363.21 292.493 364.949 292.167C375.383 290.297 384.861 282.906 394.774 268.928C423.903 227.886 465.792 197.865 512.724 184.387C527.136 180.257 541.31 178.17 554.874 178.17C592.372 178.17 620.132 193.322 644 210.191V209.386C620.132 192.561 592.372 177.518 554.874 177.518C541.266 177.518 527.028 179.626 512.55 183.778C465.466 197.278 423.468 227.386 394.252 268.559C384.448 282.385 375.101 289.689 364.84 291.515C363.145 291.819 361.406 291.971 359.645 291.971C346.733 291.971 333.081 283.885 316.539 271.754C315.039 270.646 312.734 269.124 310.104 267.363C296.04 257.994 269.867 240.56 272.671 228.125C274.932 218.234 291.953 213.386 306.974 209.104C315.734 206.604 323.995 204.256 328.364 201.147C340.994 192.235 346.667 177.278 352.167 162.822C355.232 154.735 358.428 146.366 362.754 139.388C371.688 125.019 379.818 119.171 390.861 119.171C395.556 119.171 400.469 120.128 406.186 121.236C412.838 122.541 420.403 123.997 429.315 124.214C431.076 124.258 432.902 124.28 434.75 124.28C460.357 124.28 484.378 120.193 507.637 116.215C528.202 112.715 547.614 109.389 565.83 109.389C577.09 109.389 587.025 110.671 596.242 113.302C612.045 117.802 627.849 124.693 643.978 132.758V132.019C627.914 123.997 612.176 117.149 596.415 112.65C587.155 110.063 577.156 108.758 565.852 108.758Z" fill="#E8E8E8" fill-opacity="0.11"/>
<path d="M89.1372 881.414C83.6374 889.718 76.79 900.022 79.1594 907.152C80.1159 910.065 82.5505 912.239 86.3764 913.609C87.0938 913.869 87.8981 914 88.7459 914C97.1368 914 110.44 901.022 122.179 889.587C129.635 882.305 136.7 875.436 140.939 873.501C161.199 864.305 189.154 859.936 213.805 856.066C223.543 854.545 232.738 853.11 241.216 851.436C260.563 847.654 279.236 845.719 296.735 845.719C353.993 845.719 402.056 866.327 439.619 906.957C443.836 911.522 449.945 913.826 457.836 913.826C482.356 913.826 524.419 889.957 554.026 845.719C571.743 819.263 597.481 765.156 570.721 700.179C560.004 674.136 544.07 662.006 520.572 662.006C502.703 662.006 482.313 668.571 458.705 676.179C429.663 685.549 396.73 696.157 361.297 696.157C333.712 696.157 308.387 689.788 283.866 676.723C208.218 636.376 206.022 562.791 212.544 503.184C215.087 480.01 210.957 461.663 200.631 450.12C193.327 441.968 183.393 437.663 171.872 437.663C150.047 437.663 122.809 454.598 112.984 486.988C103.745 517.466 125.657 545.183 151.025 577.269C179.654 613.442 212.087 654.441 205.783 709.157C202.653 736.287 192.762 762.308 179.285 778.786C169.068 791.285 160.047 792.394 150.482 793.568C143.178 794.459 135.635 795.394 126.787 801.003C120.027 805.285 117.918 812.589 115.679 820.307C114.136 825.632 112.527 831.132 109.288 835.654C107.506 838.132 104.397 838.676 101.137 839.241C96.8107 840.002 91.8979 840.849 89.3111 846.436C87.5068 850.328 89.898 854.914 92.2022 859.349C94.1369 863.045 96.1151 866.871 95.5281 870.044C94.963 872.61 92.2674 876.696 89.1372 881.414ZM93.2456 858.784C90.9849 854.436 88.8328 850.306 90.3762 846.98C92.7022 841.98 97.0715 841.219 101.289 840.48C104.68 839.893 108.18 839.284 110.245 836.393C113.614 831.698 115.245 826.089 116.831 820.676C119.005 813.176 121.07 806.111 127.418 802.09C136.026 796.633 143.439 795.72 150.591 794.829C160.416 793.612 169.676 792.481 180.219 779.59C193.827 762.938 203.849 736.656 207.001 709.309C213.348 654.071 180.741 612.855 151.982 576.486C126.831 544.683 105.093 517.205 114.158 487.358C123.809 455.554 150.482 438.924 171.85 438.924C183.002 438.924 192.632 443.076 199.675 450.946C209.761 462.206 213.783 480.206 211.283 503.031C204.718 563.03 206.957 637.115 283.258 677.81C307.974 690.983 333.494 697.396 361.297 697.396C396.926 697.396 429.946 686.744 459.075 677.353C482.574 669.767 502.877 663.223 520.55 663.223C543.788 663.223 558.896 674.767 569.547 700.614C596.089 765.069 570.547 818.72 552.961 844.98C524.637 887.261 482.334 912.543 457.792 912.543C450.293 912.543 444.467 910.37 440.51 906.087C402.708 865.197 354.319 844.458 296.713 844.458C279.149 844.458 260.389 846.393 240.955 850.197C232.499 851.849 223.304 853.284 213.587 854.806C188.849 858.675 160.829 863.066 140.395 872.327C135.961 874.349 129.157 880.979 121.288 888.653C109.723 899.935 96.615 912.717 88.7241 912.717C88.0285 912.717 87.3764 912.609 86.7894 912.413C83.3114 911.152 81.2028 909.304 80.355 906.739C78.1812 900.196 84.833 890.153 90.1806 882.088C93.3978 877.24 96.1585 873.066 96.6803 870.284C97.3541 866.697 95.2673 862.675 93.2456 858.784Z" fill="#E8E8E8" fill-opacity="0.11"/>
<path d="M260.281 781.721C261.172 782.22 262.128 782.46 263.128 782.46C266.998 782.46 270.78 778.677 274.149 775.351C276.084 773.416 277.932 771.59 279.432 770.873C281.388 769.938 283.214 769.482 285.018 769.482C288.475 769.482 291.409 771.134 294.8 773.047C296.018 773.721 297.279 774.438 298.626 775.112C301.865 776.721 305.039 777.481 308.322 777.481C311.626 777.481 314.669 776.721 317.908 775.938C321.277 775.112 324.755 774.264 328.82 774.177H329.342C337.603 774.177 345.167 778.46 352.493 782.59C359.775 786.699 367.297 790.959 375.492 790.959C379.427 790.959 383.209 790.003 387.035 788.068C390.1 786.503 392.448 784.59 394.513 782.873C397.882 780.09 400.795 777.699 405.708 777.699C407.143 777.699 408.686 777.895 410.403 778.308C424.359 781.612 430.511 794.438 436.445 806.85C439.228 812.676 442.097 818.676 445.727 823.48C453.01 833.111 462.401 838.415 472.183 838.415H472.683C482.486 838.241 491.899 832.828 499.203 823.198C509.094 810.133 527.071 767.547 519.615 746.352C517.419 740.091 513.181 736.135 507.05 734.591C504.877 734.048 502.877 733.765 500.899 733.765C494.551 733.765 489.79 736.613 484.291 739.895C483.052 740.634 481.769 741.395 480.421 742.156C469.27 748.46 458.227 749.765 446.51 751.156C441.923 751.699 437.163 752.265 432.359 753.134C427.011 754.112 422.185 755.982 417.533 757.786C411.403 760.156 405.621 762.395 399.252 762.395C394.947 762.395 390.73 761.351 386.405 759.221C377.448 754.808 367.688 750.743 356.906 750.743C353.341 750.743 349.819 751.156 346.189 752.026C344.537 752.417 342.907 752.83 341.32 753.243C335.081 754.83 329.19 756.33 323.212 756.33C318.365 756.33 313.8 755.33 309.278 753.243L307.365 752.352C299.148 748.547 290.649 744.634 281.975 744.634C277.171 744.634 272.758 745.808 268.432 748.2C262.998 751.221 255.716 763.917 255.716 772.764C255.694 776.982 257.281 780.068 260.281 781.721ZM268.911 749.178C273.062 746.874 277.323 745.743 281.932 745.743C290.388 745.743 298.757 749.613 306.865 753.373L308.778 754.265C313.43 756.395 318.147 757.438 323.169 757.438C329.277 757.438 335.233 755.917 341.537 754.308C343.124 753.895 344.733 753.482 346.385 753.091C349.928 752.243 353.363 751.83 356.841 751.83C367.405 751.83 377.035 755.852 385.861 760.199C390.361 762.417 394.708 763.482 399.186 763.482C405.751 763.482 411.642 761.199 417.859 758.786C422.468 757.004 427.228 755.156 432.489 754.178C437.271 753.308 441.989 752.743 446.575 752.199C458.379 750.808 469.552 749.482 480.878 743.069C482.226 742.308 483.53 741.526 484.769 740.787C490.138 737.591 494.768 734.809 500.812 734.809C502.681 734.809 504.616 735.069 506.681 735.591C512.441 737.048 516.419 740.765 518.485 746.656C525.81 767.503 508.007 809.568 498.225 822.48C491.138 831.828 482.03 837.089 472.552 837.263H472.074C462.64 837.263 453.553 832.111 446.488 822.763C442.923 818.046 440.206 812.35 437.315 806.329C431.272 793.677 425.011 780.612 410.534 777.199C408.729 776.764 407.121 776.568 405.599 776.568C400.295 776.568 397.252 779.09 393.708 781.981C391.578 783.72 389.404 785.525 386.426 787.046C382.752 788.916 379.144 789.829 375.383 789.829C367.471 789.829 360.406 785.829 352.928 781.59C345.494 777.373 337.798 773.025 329.255 773.025H328.712C324.516 773.112 320.995 773.982 317.56 774.829C314.386 775.612 311.387 776.351 308.235 776.351C305.083 776.351 302.148 775.634 299.018 774.09C297.692 773.438 296.453 772.742 295.257 772.069C291.866 770.156 288.67 768.373 284.953 768.373C282.975 768.373 280.997 768.873 278.888 769.873C277.214 770.677 275.323 772.547 273.323 774.547C270.128 777.721 266.498 781.329 263.085 781.329C262.28 781.329 261.52 781.134 260.781 780.721C258.107 779.242 256.737 776.568 256.737 772.742C256.759 763.808 264.324 751.721 268.911 749.178Z" fill="#E8E8E8" fill-opacity="0.11"/>
<path d="M120.07 858.566C121.462 858.936 123.961 859.11 127.135 859.11C133.744 859.11 158.286 858.132 196.566 845.48C228.565 834.915 265.998 829.089 301.931 829.089C361.101 829.089 400.404 837.958 451.032 886.414C454.618 889.848 459.444 891.587 465.335 891.587C487.334 891.587 520.615 867.631 541.092 837.045C557.091 813.154 580.351 764.373 556.331 706.048C545.983 680.94 533.006 677.484 520.528 677.484C505.094 677.484 485.791 683.701 463.422 690.918C433.293 700.635 399.121 711.635 361.254 711.635C331.06 711.635 303.344 704.679 276.519 690.375C191.719 645.158 190.567 560.9 197.088 501.466C199.11 483.054 196.24 468.489 189.045 460.467C184.719 455.641 178.915 453.185 171.829 453.185C155.721 453.185 135.417 466.337 127.787 491.488C120.896 514.205 140.482 538.965 163.155 567.639C192.132 604.268 228.195 649.854 221.152 710.918C219.13 728.417 214.479 745.047 207.283 760.351C195.827 784.72 180.698 805.394 162.286 821.806C150.134 832.632 137.939 840.219 129.048 845.741C120.94 850.784 116.049 853.806 116.397 856.132C116.549 857.197 117.723 857.958 120.07 858.566ZM129.396 846.328C138.309 840.784 150.525 833.198 162.72 822.328C181.198 805.85 196.393 785.112 207.892 760.678C215.131 745.308 219.804 728.591 221.826 711.048C228.891 649.702 192.741 603.986 163.677 567.269C141.113 538.748 121.636 514.118 128.418 491.727C135.961 466.88 155.96 453.88 171.829 453.88C178.72 453.88 184.35 456.25 188.567 460.945C195.653 468.837 198.436 483.228 196.458 501.445C189.936 561.074 191.088 645.593 276.236 691.005C303.17 705.374 330.994 712.353 361.275 712.353C399.252 712.353 433.467 701.331 463.661 691.592C485.965 684.397 505.203 678.201 520.55 678.201C532.81 678.201 545.549 681.614 555.744 706.353C579.634 764.395 556.483 812.959 540.57 836.741C520.55 866.653 486.791 890.979 465.357 890.979C459.618 890.979 454.966 889.305 451.488 885.979C426.946 862.501 404.121 847.567 379.622 838.98C358.536 831.611 335.298 828.458 301.909 828.458C265.889 828.458 228.391 834.284 196.327 844.871C158.155 857.48 133.7 858.458 127.113 858.458C124.005 858.458 121.549 858.262 120.223 857.914C118.223 857.393 117.136 856.762 117.027 856.023C116.744 854.175 122.049 850.871 129.396 846.328Z" fill="#E8E8E8" fill-opacity="0.11"/>
<path d="M171.829 468.206C160.177 468.206 147.373 479.989 143.178 490.575C140.395 497.597 142.526 509.575 148.851 522.661C154.808 534.987 162.764 544.465 168.633 546.226C169.524 546.487 170.437 546.639 171.307 546.639C172.285 546.639 173.263 546.465 174.198 546.139C181.763 543.509 181.589 538.857 181.219 528.683C180.98 522.422 180.676 513.857 181.958 502.097C183.698 486.293 181.219 474.25 177.872 470.532C176.807 469.315 175.328 468.206 171.829 468.206ZM180.872 501.966C179.567 513.814 179.893 522.422 180.132 528.727C180.502 538.922 180.654 542.748 173.828 545.117C172.242 545.661 170.59 545.704 168.916 545.204C163.329 543.531 155.656 534.292 149.808 522.205C143.613 509.401 141.504 497.727 144.178 490.988C148.243 480.728 160.59 469.315 171.829 469.293C174.894 469.293 176.154 470.228 177.067 471.228C180.241 474.793 182.567 486.488 180.872 501.966Z" fill="#E8E8E8" fill-opacity="0.11"/>
<path d="M235.325 806.133C237.325 806.133 239.782 805.959 242.847 805.611C244.173 805.459 275.715 801.937 309.561 801.937C322.756 801.937 334.516 802.481 344.515 803.568C394.491 808.937 437.75 832.784 458.444 854.023C462.248 857.936 466.792 859.914 471.965 859.914C483.552 859.914 497.812 849.828 511.116 832.263C534.419 801.481 541.462 742.548 529.919 719.352C526.854 713.2 522.571 709.94 517.528 709.94C517.115 709.94 516.68 709.961 516.246 710.005C507.116 710.94 494.421 714.657 478.378 719.374C448.314 728.2 407.143 740.265 362.493 740.982C324.343 741.613 280.736 726.504 265.911 719.287C261.063 716.918 257.933 715.874 255.759 715.874C251.324 715.874 251.151 720.07 250.825 727.048C250.564 732.591 250.238 740.178 247.52 748.83C242.608 764.569 237.043 776.503 232.978 785.22C228.478 794.894 225.739 800.72 227.674 803.763C228.739 805.394 231.108 806.133 235.325 806.133ZM233.565 785.46C237.63 776.721 243.216 764.764 248.129 748.982C250.846 740.243 251.194 732.591 251.455 727.026C251.759 720.222 251.933 716.483 255.737 716.483C257.781 716.483 260.911 717.548 265.606 719.831C280.193 726.939 322.516 741.613 360.254 741.613C360.993 741.613 361.754 741.613 362.493 741.591C407.23 740.874 448.445 728.787 478.552 719.939C494.573 715.244 507.224 711.527 516.311 710.592C521.702 710.048 526.093 713.07 529.31 719.57C540.766 742.613 533.745 801.177 510.572 831.806C497.399 849.219 483.313 859.197 471.944 859.197C466.966 859.197 462.574 857.284 458.901 853.501C438.119 832.176 394.73 808.263 344.581 802.872C334.559 801.785 322.777 801.242 309.561 801.242C275.693 801.242 244.107 804.785 242.781 804.916C239.738 805.263 237.303 805.437 235.325 805.437C231.391 805.437 229.13 804.763 228.217 803.329C226.478 800.655 229.152 794.938 233.565 785.46Z" fill="#E8E8E8" fill-opacity="0.11"/>
<path d="M186.676 831.045C188.697 831.045 191.284 830.524 193.98 829.589C224.413 819.024 259.715 813.894 301.909 813.894C354.45 813.894 406.512 818.698 465.661 876.87C467.357 878.544 469.596 879.392 472.291 879.392C488.834 879.392 519.398 847.697 528.462 828.589C529.288 826.85 530.18 825.002 531.136 823.067C542.679 799.416 561.982 759.808 542.244 711.896C534.353 692.744 527.006 692.744 520.506 692.744C507.464 692.744 489.204 698.636 468.074 705.44C436.88 715.505 401.512 726.896 361.254 726.896C326.799 726.896 298.931 720.57 270.845 706.374C266.498 704.179 262.324 701.766 258.628 699.657C251.238 695.418 245.412 692.07 241.651 692.07C238.716 692.07 237.282 694.114 237.217 698.331C237.217 699.005 237.303 700.07 237.456 701.57C241.477 742.83 225.5 781.351 189.98 816.067C183.784 822.133 181.154 826.48 182.176 829.002C182.719 830.328 184.284 831.045 186.676 831.045ZM190.436 816.524C213.283 794.198 228.26 769.982 234.934 744.526C240.303 724.07 238.76 708.244 238.108 701.505C237.956 700.027 237.869 698.962 237.869 698.331C237.934 693.31 240.064 692.723 241.651 692.723C245.238 692.723 251.303 696.201 258.302 700.222C261.998 702.353 266.193 704.744 270.563 706.961C298.735 721.2 326.69 727.57 361.254 727.57C401.621 727.57 437.032 716.157 468.292 706.07C489.377 699.266 507.594 693.397 520.528 693.397C526.81 693.397 533.94 693.397 541.657 712.135C561.265 759.764 542.049 799.198 530.549 822.763C529.593 824.719 528.702 826.546 527.876 828.306C518.876 847.284 488.617 878.74 472.291 878.74C469.77 878.74 467.683 877.957 466.118 876.414C438.641 849.393 410.186 831.698 379.166 822.306C351.515 813.937 325.842 813.242 301.909 813.242C259.65 813.242 224.282 818.394 193.762 828.98C191.132 829.893 188.61 830.393 186.676 830.393C185.197 830.393 183.328 830.111 182.785 828.763C182.263 827.48 182.567 824.198 190.436 816.524Z" fill="#E8E8E8" fill-opacity="0.11"/>
<path d="M69.8338 0H68.2469C64.8993 11.7171 62.5516 24.5429 61.1821 38.6513C58.7692 63.1724 56.6388 95.2803 61.6603 126.214C65.3123 148.779 72.6597 158.822 85.4634 158.822C93.6369 158.822 103.136 154.866 114.158 150.257C121.809 147.062 129.722 143.779 138.156 141.388C138.961 141.149 139.765 140.931 140.591 140.714C164.655 134.258 191.784 133.345 220.565 138.018C228.282 139.279 236.108 141.431 243.694 143.518C254.737 146.562 266.15 149.714 277.736 150.236C284.018 150.518 288.497 149.866 291.649 148.301C300.887 143.692 296.387 132.193 291.649 120.019C288.844 112.823 285.931 105.367 285.453 98.6933C282.91 63.2159 302.735 30.8906 328.929 0H326.929C300.909 30.8254 281.366 63.1724 283.932 98.802C284.431 105.715 287.366 113.28 290.236 120.584C294.931 132.606 298.974 142.975 290.975 146.953C288.083 148.388 283.714 148.996 277.801 148.736C266.389 148.236 255.063 145.105 244.107 142.084C236.499 139.975 228.63 137.801 220.826 136.54C191.828 131.845 164.481 132.779 140.221 139.279C139.395 139.497 138.591 139.714 137.765 139.953C129.222 142.366 121.266 145.692 113.592 148.888C102.745 153.409 93.3544 157.322 85.4852 157.322C73.5728 157.322 66.6818 147.649 63.182 125.975C58.1822 95.1934 60.3126 63.2159 62.7038 38.8034C64.0732 24.6298 66.4427 11.7389 69.8338 0Z" fill="#E8E8E8" fill-opacity="0.11"/>
<path d="M50.3566 608.333C48.9001 607.007 47.5958 606.377 46.3785 606.377C43.3352 606.377 41.2049 610.246 37.9876 616.094C34.64 622.159 30.075 630.463 22.1624 638.876L19.8364 641.333C10.7716 650.941 6.61968 655.332 7.64137 657.702C8.09786 658.767 9.51083 659.245 12.1846 659.245C14.4671 659.245 17.8148 658.919 23.4014 658.137C25.7057 657.811 28.0534 657.658 30.3793 657.658C49.2262 657.658 64.9428 668.223 76.4204 675.941C83.1375 680.462 88.4416 684.027 92.2457 684.027C93.8326 684.027 95.1369 683.397 96.1151 682.136C108.136 666.702 66.0514 622.572 50.3566 608.333ZM95.2456 681.484C94.4847 682.484 93.4848 682.962 92.224 682.962C88.7459 682.962 83.5722 679.484 77.0074 675.049C65.421 667.245 49.5522 656.571 30.3576 656.571C27.9881 656.571 25.5752 656.745 23.2275 657.071C17.7061 657.854 14.3802 658.18 12.1629 658.18C10.076 658.18 8.88043 657.876 8.61957 657.289C7.88048 655.593 12.9454 650.224 20.619 642.093L22.9449 639.637C30.9445 631.137 35.5747 622.746 38.9224 616.638C41.9657 611.116 43.9656 607.486 46.3785 607.486C47.3132 607.486 48.3784 608.029 49.6175 609.159C69.1165 626.833 105.919 667.767 95.2456 681.484Z" fill="#E8E8E8" fill-opacity="0.11"/>
<path d="M50.6609 626.463C43.0526 626.463 33.2487 638.463 33.2053 644.159C33.1835 646.485 34.64 647.854 37.1833 647.898C48.4001 648.093 60.2474 655.202 68.8991 660.397C74.0293 663.463 77.7247 665.702 79.9202 665.702C80.6159 665.702 81.1811 665.484 81.5724 665.049C82.0723 664.506 82.268 663.68 82.181 662.528C81.3767 652.071 61.5299 631.137 53.4868 627.116C52.6173 626.681 51.6826 626.463 50.6609 626.463ZM80.6594 662.636C80.7246 663.549 80.5507 663.897 80.442 664.006C80.3985 664.049 80.2898 664.18 79.8985 664.18C78.116 664.18 74.2032 661.832 69.6599 659.093C60.856 653.811 48.8132 646.593 37.2051 646.398C35.4878 646.376 34.7052 645.68 34.7269 644.18C34.7704 639.094 43.8786 627.985 50.6609 627.985C51.4435 627.985 52.1608 628.137 52.7912 628.463C61.4647 632.811 79.9203 653.158 80.6594 662.636Z" fill="#E8E8E8" fill-opacity="0.11"/>
<path d="M23.771 429.294C25.6404 429.294 27.1404 426.642 28.5968 420.707C34.053 398.512 52.0739 369.143 80.0724 353.535C108.397 337.731 127.266 333.623 137.417 331.427C142.461 330.34 144.982 329.775 145.591 328.449C145.83 327.949 145.743 327.34 145.373 326.644C143.417 323.079 108.332 303.449 57.8779 299.362L55.7476 299.189C51.2043 298.819 47.2698 298.493 43.5091 298.493C30.3359 298.493 19.7277 302.167 -5.05365 323.101C-8.96649 326.405 -12.9663 329.47 -16.8356 332.449C-28.8133 341.644 -39.1606 349.557 -38.4867 358.578C-37.965 365.491 -31.1175 372.361 -16.9443 380.165C-1.2495 388.817 8.31524 405.99 14.641 417.338C18.5973 424.533 21.2494 429.294 23.771 429.294ZM-16.6835 379.6C-30.4654 372.013 -37.3998 365.122 -37.8998 358.535C-38.5519 349.883 -28.335 342.057 -16.4878 332.992C-12.6185 330.014 -8.59693 326.949 -4.68409 323.623C19.9233 302.819 30.4445 299.167 43.4439 299.167C47.1828 299.167 51.0957 299.493 55.6389 299.862L57.7692 300.036C107.071 304.015 142.895 323.579 144.743 326.971C145.113 327.666 145.047 327.992 144.939 328.188C144.46 329.21 141.743 329.818 137.222 330.797C127.048 333.014 108.093 337.122 79.7029 352.97C51.5522 368.687 33.4009 398.251 27.9229 420.577C26.5752 426.012 25.2057 428.664 23.7275 428.664C21.5972 428.664 18.7495 423.533 15.1192 417.055C8.79346 405.599 -0.814728 388.339 -16.6835 379.6Z" fill="#E8E8E8" fill-opacity="0.11"/>
<path d="M27.8794 466.619C29.7706 466.619 31.0749 464.359 31.9879 459.489C37.6398 429.555 49.8783 387.165 90.7675 364.557C103.397 357.557 117.679 352.035 134.396 347.622C137.765 346.731 141.352 344.318 144.852 341.97C149.351 338.927 154.025 335.796 158.329 335.796C158.829 335.796 159.329 335.84 159.786 335.927C162.199 336.362 164.003 337.753 165.742 339.101C167.698 340.622 169.546 342.057 172.111 342.057C173.068 342.057 174.068 341.861 175.133 341.427C176.959 340.709 177.915 339.296 178.828 337.927C180.132 335.992 181.35 334.166 185.045 334.492C188.719 334.796 190.697 337.601 192.784 340.557C194.24 342.622 195.762 344.774 197.914 345.97C199.479 346.84 202.305 347.774 204.805 347.774C206.544 347.774 207.783 347.318 208.479 346.405C209.131 345.535 209.261 344.296 208.827 342.753C207.392 337.622 196.414 332.84 189.132 329.666C186.98 328.731 185.132 327.927 183.937 327.297C173.111 321.558 162.307 316.71 153.177 312.71C114.658 295.863 79.529 285.58 45.8133 281.276C42.0091 280.798 38.7267 280.559 35.7486 280.559C19.1408 280.559 6.27185 287.819 -19.3355 311.645C-25.6178 317.493 -32.0957 322.514 -38.3345 327.362C-52.3338 338.231 -63.3985 346.818 -63.1376 357.622C-62.9203 366.144 -55.5293 375.23 -39.8345 386.208C-14.5749 403.882 2.18511 430.729 13.2932 448.489C20.0755 459.402 24.5753 466.619 27.8794 466.619ZM-39.5301 385.621C-55.0294 374.774 -62.3551 365.839 -62.5507 357.535C-62.8116 347.057 -51.8556 338.557 -37.9867 327.797C-31.7262 322.927 -25.2483 317.906 -18.9442 312.036C6.53271 288.341 19.2929 281.124 35.7051 281.124C38.6615 281.124 41.9222 281.363 45.6829 281.841C79.3333 286.124 114.397 296.406 152.851 313.232C161.981 317.232 172.763 322.079 183.567 327.797C184.784 328.449 186.654 329.253 188.806 330.188C195.958 333.296 206.783 338.014 208.131 342.84C208.501 344.188 208.435 345.231 207.892 345.927C207.196 346.84 205.783 347.035 204.74 347.035C202.479 347.035 199.718 346.166 198.175 345.296C196.153 344.188 194.697 342.101 193.262 340.079C191.175 337.122 189.023 334.079 185.045 333.731C180.959 333.362 179.589 335.47 178.241 337.47C177.328 338.818 176.481 340.079 174.85 340.731C173.85 341.122 172.959 341.318 172.068 341.318C169.742 341.318 167.959 339.948 166.09 338.514C164.285 337.122 162.416 335.666 159.851 335.231C159.351 335.144 158.807 335.101 158.286 335.101C153.786 335.101 149.047 338.296 144.46 341.383C140.874 343.796 137.461 346.101 134.222 346.948C117.44 351.361 103.136 356.926 90.4415 363.948C49.3131 386.687 37.0094 429.272 31.3358 459.337C30.488 463.772 29.3576 465.945 27.8577 465.945C24.9231 465.945 20.2494 458.446 13.7715 448.076C2.66335 430.294 -14.1619 403.382 -39.5301 385.621Z" fill="#E8E8E8" fill-opacity="0.11"/>
<path d="M108.18 739.395C123.048 737.7 137.048 727.483 143.874 713.374C150.091 700.483 153.46 678.614 134.157 647.658C125.874 634.354 116.831 620.942 108.093 607.964C83.094 570.856 59.4865 535.792 49.7262 500.618C38.705 460.837 47.5524 428.012 77.5943 397.338C103.615 370.774 137.983 355.535 171.916 355.535C197.414 355.535 220.174 364.513 235.977 380.795C253.346 398.686 262.041 424.881 261.085 456.511C260.868 463.858 260.52 471.445 260.15 479.489C258.846 508.053 257.346 540.422 261.954 567.356C267.258 598.334 279.845 617.464 300.409 625.855C311.43 630.355 321.864 632.615 331.451 632.615C348.863 632.615 363.688 625.007 374.318 610.638C392.382 586.182 396.708 544.313 385.1 506.444C360.167 425.185 300.213 376.687 211.587 324.731C144.265 285.276 87.3981 273.102 35.9877 265.82C32.1618 265.276 28.5099 264.994 25.1405 264.994C3.6633 264.994 -6.55357 275.928 -19.4877 289.776C-24.4657 295.102 -29.5958 300.58 -35.9868 306.21C-43.3343 312.666 -49.7252 316.601 -55.3771 320.079C-64.4419 325.644 -72.2458 330.449 -80.8758 343.318C-97.9619 368.861 -75.0935 384.534 -50.8991 401.121C-38.1171 409.882 -24.8787 418.947 -17.7921 429.685C26.7273 497.14 8.77174 569.095 -22.9006 613.942C-31.9436 626.768 -45.1603 638.876 -59.1596 651.68C-76.2674 667.354 -93.9621 683.549 -104.07 701.657C-108.418 709.44 -109.657 714.722 -107.853 717.809C-106.527 720.07 -103.592 721.157 -98.9184 721.157C-90.571 721.157 -77.3108 717.7 -61.942 713.679C-40.3996 708.07 -13.5967 701.07 10.0978 701.07C22.6406 701.07 33.4009 703.07 42.0744 707.005C50.7044 710.94 58.0083 716.613 65.0732 722.113C76.703 731.156 87.659 739.678 103.18 739.678C104.81 739.678 106.506 739.569 108.18 739.395ZM42.357 706.396C33.4879 702.353 22.9449 700.396 10.1195 700.396C-13.6402 700.396 -40.5083 707.396 -62.0724 713.026C-77.3977 717.026 -90.6145 720.461 -98.8966 720.483C-103.331 720.483 -106.07 719.483 -107.288 717.439C-108.961 714.57 -107.722 709.505 -103.505 701.94C-93.4404 683.94 -75.7891 667.767 -58.7031 652.137C-44.682 639.289 -31.4436 627.181 -22.3571 614.29C-3.79283 588.008 7.16312 558.03 9.31519 527.596C11.7933 492.814 2.85899 459.728 -17.2487 429.294C-24.4005 418.468 -37.6824 409.36 -50.5296 400.556C-74.4631 384.143 -97.0706 368.665 -80.3324 343.644C-71.8111 330.883 -64.0289 326.123 -55.0511 320.601C-49.3774 317.123 -42.9647 313.166 -35.5738 306.667C-29.1611 301.036 -24.0092 295.515 -19.0312 290.189C-6.20576 276.472 3.94591 265.624 25.1187 265.624C28.4447 265.624 32.0749 265.907 35.879 266.428C87.2242 273.711 144.026 285.863 211.24 325.253C299.735 377.1 359.58 425.533 384.448 506.575C396.013 544.27 391.73 585.899 373.775 610.203C363.275 624.398 348.646 631.92 331.429 631.92C321.93 631.92 311.582 629.659 300.648 625.202C280.301 616.898 267.845 597.942 262.585 567.204C257.976 540.335 259.476 507.988 260.781 479.467C261.15 471.424 261.498 463.837 261.715 456.489C262.672 424.664 253.933 398.317 236.434 380.295C220.5 363.883 197.588 354.839 171.916 354.839C137.809 354.839 103.245 370.143 77.1161 396.838C61.1604 413.142 51.313 429.946 46.9872 448.25C43.1395 464.598 43.8134 481.749 49.074 500.749C58.8561 536.031 82.4854 571.117 107.528 608.29C116.266 621.268 125.309 634.681 133.591 647.963C152.743 678.679 149.417 700.309 143.265 713.048C136.548 726.961 122.744 737.048 108.093 738.7C106.441 738.895 104.789 738.982 103.18 738.982C87.8981 738.982 77.0074 730.504 65.4862 721.548C58.3996 716.07 51.0522 710.353 42.357 706.396Z" fill="#E8E8E8" fill-opacity="0.11"/>
<path d="M122.44 712.418C128.135 708.266 131.483 702.462 132.352 695.179C134.939 673.81 115.984 642.615 98.9628 622.42C77.7247 597.203 56.6388 570.291 46.3133 544.248C45.8133 542.965 45.0307 539.335 44.0525 534.748C40.7266 519.27 35.1834 493.38 27.1404 493.38C26.4013 493.38 25.6404 493.597 24.9013 494.054C21.5537 496.032 20.5755 499.945 21.8798 505.966C22.9449 510.901 25.423 516.596 27.5751 521.618C29.8793 526.922 31.8575 531.509 31.814 534.118C31.7271 540.835 28.5968 543.791 25.5535 546.661C23.184 548.9 20.7494 551.204 19.8581 555.226C18.7277 560.4 20.8581 564.291 22.9232 568.052C24.8361 571.53 26.7925 575.117 26.1839 579.747C25.0318 588.247 -1.87989 618.877 -25.5961 645.919C-45.2472 668.289 -62.2029 687.614 -61.9203 691.31C-61.8985 691.592 -61.7899 691.81 -61.616 691.962C-59.9856 693.31 -57.051 693.962 -52.5947 693.962C-45.5733 693.962 -35.8129 692.397 -24.4874 690.571C-10.7707 688.375 4.77194 685.875 18.2712 685.875C28.8142 685.875 36.7051 687.375 42.3787 690.462C45.4655 692.136 48.9218 694.136 52.5521 696.266C68.7686 705.679 88.9415 717.418 106.028 717.418C112.397 717.396 117.897 715.722 122.44 712.418ZM42.7265 689.875C36.9442 686.745 28.9446 685.201 18.3147 685.201C4.77193 685.201 -10.7925 687.701 -24.5527 689.897C-35.8347 691.701 -45.595 693.266 -52.5512 693.266C-56.8336 693.266 -59.6595 692.657 -61.1595 691.418C-61.1812 691.397 -61.2247 691.353 -61.2464 691.223C-61.5073 687.788 -43.8125 667.658 -25.0961 646.311C-1.29297 619.203 25.6622 588.486 26.8578 579.812C27.5099 574.965 25.4883 571.291 23.5318 567.726C21.4233 563.9 19.4451 560.291 20.532 555.356C21.358 551.53 23.6405 549.4 26.0317 547.139C29.162 544.183 32.401 541.118 32.4879 534.14C32.5314 531.4 30.5097 526.748 28.1838 521.357C26.0317 516.357 23.5753 510.705 22.5102 505.836C21.2711 500.119 22.1623 496.445 25.2274 494.619C25.8578 494.249 26.51 494.054 27.1404 494.054C34.6617 494.054 40.3571 520.618 43.4004 534.9C44.4221 539.705 45.1612 543.161 45.7046 544.509C56.0519 570.639 77.1812 597.595 98.4628 622.855C115.397 642.963 134.265 673.941 131.7 695.114C130.831 702.223 127.592 707.874 122.049 711.918C117.636 715.135 112.266 716.744 106.071 716.744C89.1806 716.744 69.073 705.07 52.9216 695.679C49.2697 693.549 45.8351 691.549 42.7265 689.875Z" fill="#E8E8E8" fill-opacity="0.11"/>
<path d="M114.984 685.136C116.918 667.223 97.7454 639.137 88.1589 628.333C71.6163 609.703 60.0734 593.812 52.4434 583.312C44.8786 572.899 40.7049 567.139 38.0094 567.139C36.1616 567.139 35.1399 569.53 34.5095 575.421C29.7706 619.681 1.14168 643.659 -15.9661 657.963C-23.4658 664.245 -28.4003 668.375 -28.6177 671.788C-28.6829 672.767 -28.3351 673.68 -27.5742 674.462C-26.0091 676.114 -23.5527 676.897 -19.792 676.897C-15.5749 676.897 -10.249 675.919 -4.07544 674.788C3.92415 673.31 13.0106 671.658 22.2928 671.658C34.9443 671.658 45.1394 674.81 53.4868 681.288C65.2471 690.418 82.6375 700.179 96.2672 700.179C101.18 700.179 105.375 698.94 108.767 696.462C112.375 693.875 114.462 690.049 114.984 685.136ZM96.2672 699.549C82.8114 699.549 65.5514 689.875 53.8998 680.81C45.422 674.223 35.0965 671.027 22.3145 671.027C12.9672 671.027 3.85892 672.701 -4.18414 674.18C-10.3143 675.31 -15.6183 676.266 -19.7703 676.266C-23.3353 676.266 -25.6613 675.549 -27.0743 674.027C-27.7047 673.353 -27.9873 672.636 -27.9438 671.832C-27.7481 668.701 -22.618 664.397 -15.5314 658.463C1.64165 644.072 30.401 620.007 35.1617 575.486C35.7269 570.16 36.6181 567.791 38.0094 567.791C40.3788 567.791 44.7264 573.769 51.9217 583.682C59.5517 594.203 71.1163 610.094 87.659 628.746C97.1802 639.485 116.244 667.354 114.331 685.049C113.81 689.766 111.81 693.44 108.375 695.94C105.115 698.353 101.028 699.549 96.2672 699.549Z" fill="#E8E8E8" fill-opacity="0.11"/>
<path d="M300.735 506.271C298.496 540.27 308.256 563.682 318.147 574.225C322.669 579.051 327.625 581.725 332.125 581.725C338.45 581.725 343.211 576.747 345.515 567.704C360.362 509.51 309.8 448.163 303.604 443.033C301.822 441.555 300.583 441.359 299.779 442.25C298.322 443.837 298.779 449.033 299.605 458.446C300.561 469.597 302.039 486.445 300.735 506.271ZM300.561 442.989C300.67 442.859 300.778 442.816 300.952 442.816C301.257 442.816 301.844 442.989 302.909 443.881C309.061 448.968 359.189 509.77 344.472 567.443C342.298 575.943 337.929 580.638 332.125 580.638C327.951 580.638 323.256 578.095 318.951 573.486C309.213 563.095 299.605 539.987 301.822 506.336C303.126 486.423 301.67 469.532 300.692 458.359C299.952 450.163 299.452 444.229 300.561 442.989Z" fill="#E8E8E8" fill-opacity="0.11"/>
<path d="M565.852 123.975C548.853 123.975 530.028 127.193 510.072 130.584C486.247 134.649 461.618 138.845 434.772 138.845C432.793 138.845 430.837 138.823 428.989 138.779C427.381 138.736 425.816 138.692 424.25 138.649C420.185 138.54 416.359 138.432 412.664 138.432C389.535 138.432 375.209 143.149 365.775 167.996C359.819 183.713 353.037 201.517 336.82 213.017C332.233 216.277 327.647 219.038 323.582 221.495C314.191 227.169 306.778 231.647 306.496 237.842C306.235 243.538 311.995 250.385 325.147 260.037C337.777 269.298 348.146 273.798 356.884 273.798C357.667 273.798 358.471 273.754 359.232 273.689C371.927 272.515 380.448 262.016 391.23 248.733C396.121 242.69 401.686 235.864 408.208 229.342C436.445 201.104 471.139 180.517 508.529 169.8C524.31 165.279 539.897 162.974 554.874 162.974C591.872 162.974 620.393 176.344 644 191.822V191.039C620.393 175.626 591.851 162.322 554.874 162.322C539.831 162.322 524.18 164.627 508.355 169.17C470.857 179.931 436.054 200.582 407.751 228.886C401.208 235.429 395.643 242.277 390.73 248.32C380.057 261.472 371.601 271.885 359.189 273.037C358.428 273.102 357.667 273.146 356.906 273.146C348.32 273.146 338.059 268.689 325.538 259.516C312.582 249.994 306.909 243.32 307.148 237.886C307.409 232.038 314.691 227.647 323.929 222.06C327.994 219.604 332.603 216.821 337.211 213.56C353.602 201.952 360.406 184.039 366.406 168.235C375.709 143.736 389.839 139.084 412.686 139.084C416.381 139.084 420.207 139.192 424.25 139.301C425.794 139.345 427.381 139.388 428.989 139.431C430.859 139.475 432.793 139.497 434.793 139.497C461.683 139.497 486.356 135.279 510.202 131.214C530.115 127.823 548.94 124.606 565.874 124.606C575.699 124.606 584.264 125.693 592.111 127.932C608.958 132.736 626.218 140.627 644.022 149.844V149.105C626.283 139.953 609.089 132.106 592.285 127.301C584.351 125.084 575.721 123.975 565.852 123.975Z" fill="#E8E8E8" fill-opacity="0.11"/>
<path d="M283.91 504.314C281.388 537.292 287.91 563.987 302.257 579.486C309.756 587.595 318.973 592.051 328.212 592.051C341.385 592.051 351.906 582.899 355.058 568.747C364.21 527.357 350.037 490.141 336.559 466.185C320.691 438.055 300.409 418.142 290.627 411.621C287.062 409.251 284.54 407.773 283.019 407.773C282.453 407.773 282.019 407.969 281.693 408.338C280.432 409.751 280.953 413.795 281.975 421.794C283.758 435.968 287.105 462.38 283.91 504.314ZM282.149 408.751C282.345 408.512 282.627 408.403 282.997 408.403C284.366 408.403 286.888 409.903 290.257 412.142C312.321 426.859 370.927 493.901 354.406 568.573C351.341 582.421 341.059 591.377 328.212 591.377C319.147 591.377 310.104 586.986 302.735 579.03C288.518 563.682 282.062 537.161 284.562 504.358C287.779 462.359 284.41 435.903 282.584 421.686C281.649 414.381 281.084 409.947 282.149 408.751Z" fill="#E8E8E8" fill-opacity="0.11"/>
<path d="M271.389 506.444C268.889 547.487 276.736 579.921 293.518 597.747C302.191 606.964 312.713 611.833 323.973 611.833C345.494 611.833 363.71 594.421 369.34 568.508C377.622 530.292 370.492 492.662 348.167 456.663C325.538 420.207 294.235 396.643 277.584 385.817C269.106 380.317 265.476 378.013 264.085 379.687C262.933 381.078 263.693 385.034 265.172 392.904C268.411 410.012 275.106 445.511 271.389 506.444ZM264.585 380.165C264.759 379.948 264.998 379.861 265.367 379.861C267.128 379.861 270.932 382.339 277.236 386.426C332.712 422.425 385.861 489.162 368.688 568.4C363.145 594.008 345.167 611.203 323.973 611.203C312.908 611.203 302.539 606.399 293.996 597.312C277.345 579.617 269.563 547.357 272.041 506.488C275.758 445.468 269.041 409.925 265.802 392.839C264.454 385.643 263.628 381.295 264.585 380.165Z" fill="#E8E8E8" fill-opacity="0.11"/>
<path d="M21.2276 370.056C27.3795 370.056 31.7923 364.122 36.5094 355.209C44.7482 339.644 61.9647 332.101 71.2033 328.057C75.877 326.014 77.6378 325.253 77.4204 323.949C77.2247 322.862 76.0292 322.405 69.6382 321.971C50.3783 320.666 7.16312 339.035 2.18512 352.861C1.033 356.057 1.88079 358.97 4.66325 361.252C12.0759 367.426 17.0322 370.056 21.2276 370.056ZM3.61984 353.405C8.16308 340.774 48.3349 323.449 67.5731 323.449C68.2469 323.449 68.8991 323.471 69.5295 323.514C73.2902 323.775 74.964 324.036 75.6379 324.253C74.8118 324.818 72.6815 325.753 70.5947 326.666C61.1821 330.775 43.6612 338.448 35.1617 354.492C29.8141 364.578 25.9013 368.513 21.2276 368.513C17.4235 368.513 12.7498 365.991 5.61973 360.1C3.33724 358.209 2.66336 356.035 3.61984 353.405Z" fill="#E8E8E8" fill-opacity="0.11"/>
<path d="M40.1614 369.274C54.965 342.296 82.0288 332.883 103.941 327.688C106.049 327.188 106.245 326.101 106.18 325.514C105.658 321.123 85.1374 312.71 54.5085 312.71C51.0522 312.71 47.5089 312.819 44.009 313.036C30.0098 313.884 -2.98854 333.405 -14.8358 347.861C-17.9226 351.622 -19.3138 354.731 -18.9877 357.144C-18.1617 363.144 -12.8359 365.796 -6.64052 368.883C-0.0973759 372.143 7.31528 375.839 10.9455 384.447C13.0541 389.469 15.8148 392.012 19.1625 392.012C24.7926 391.991 31.8792 384.36 40.1614 369.274ZM11.9237 384.013C8.16307 375.035 0.554766 371.23 -6.16228 367.883C-12.075 364.948 -17.1835 362.404 -17.9226 356.97C-18.2051 354.905 -16.8574 351.992 -14.0097 348.535C-2.29292 334.253 30.2924 314.949 44.0743 314.123C47.5741 313.906 51.0739 313.797 54.5085 313.797C84.6157 313.797 104.68 322.123 105.093 325.644C105.158 326.21 104.245 326.514 103.68 326.644C81.5506 331.883 54.2259 341.405 39.2049 368.752C26.7273 391.469 17.3582 396.969 11.9237 384.013Z" fill="#E8E8E8" fill-opacity="0.11"/>
<path d="M326.168 555.704C327.321 555.704 328.321 554.9 329.168 553.335C333.407 545.4 333.32 517.923 322.082 501.206C320.625 499.032 318.517 499.314 316.908 502.053C312.691 509.314 310.908 532.4 322.408 552.552C323.625 554.639 324.886 555.704 326.168 555.704ZM318.234 502.814C318.799 501.858 319.386 501.271 319.843 501.271C320.234 501.271 320.625 501.749 320.821 502.053C331.559 518.053 331.799 545.161 327.821 552.617C327.277 553.617 326.69 554.183 326.168 554.183C325.495 554.183 324.603 553.313 323.734 551.791C312.713 532.422 314.299 509.618 318.234 502.814Z" fill="#E8E8E8" fill-opacity="0.11"/>
<path d="M150.591 62.1942C153.503 62.1942 156.873 61.7594 160.916 60.8681C164.916 59.9768 168.72 59.129 172.133 58.6725C177.959 57.8899 183.589 57.5638 188.589 57.2812C194.306 56.9552 199.436 55.4117 204.283 52.5857C224.522 40.7599 232.978 16.5431 235.673 6.69549C236.325 4.32598 236.977 2.13038 237.608 0H236.934C236.325 2.06517 235.695 4.21729 235.064 6.52158C232.391 16.304 224 40.3034 203.979 52.0205C199.218 54.803 194.197 56.303 188.545 56.6291C183.567 56.9117 177.915 57.2378 172.068 58.0421C168.611 58.4986 164.807 59.3464 160.786 60.2377C156.808 61.129 153.482 61.542 150.612 61.542C145.808 61.542 142.461 60.3029 140.374 57.7595C137.287 53.9987 136.852 47.2815 138.982 36.6078L139.33 34.8687C142.221 20.1734 147.221 8.84762 155.069 0H154.199C146.482 8.86935 141.569 20.1517 138.678 34.7383L138.33 36.4774C136.157 47.3684 136.635 54.2596 139.852 58.1725C142.048 60.8899 145.569 62.1942 150.591 62.1942Z" fill="#E8E8E8" fill-opacity="0.11"/>
<path d="M565.852 138.975C550.135 138.975 531.897 142.084 512.594 145.366C488.16 149.54 462.879 153.844 434.772 153.844C432.707 153.844 430.663 153.822 428.641 153.779L423.859 153.649C419.903 153.54 416.186 153.431 412.686 153.431C382.231 153.431 380.731 170.17 379.122 187.887C378.253 197.604 377.34 207.669 371.992 216.212C370.079 219.256 364.949 223.125 359.493 227.212C347.907 235.907 334.777 245.777 341.081 255.016C343.798 258.994 347.059 260.994 350.776 260.994C352.819 260.994 355.037 260.385 357.341 259.19C367.623 253.885 378.601 238.19 387.426 225.582C392.426 218.43 396.752 212.256 399.121 210.821C401.599 209.343 404.382 209.147 406.751 209.147C407.664 209.147 408.599 209.191 409.534 209.212C410.49 209.256 411.447 209.278 412.381 209.278C415.968 209.278 419.751 208.843 423.163 205.734C427.272 201.995 427.794 197.126 428.294 192.43C428.75 188.213 429.163 184.235 431.967 180.865C440.445 170.735 470.183 163.648 489.856 158.974C495.638 157.605 500.638 156.409 504.377 155.344C521.485 150.431 538.484 147.953 554.852 147.953C591.198 147.953 620.262 159.866 643.978 174.126V172.844C620.24 158.67 591.177 146.866 554.852 146.866C538.375 146.866 521.289 149.366 504.072 154.301C500.377 155.366 495.377 156.562 489.595 157.931C468.596 162.931 439.837 169.779 431.141 180.191C428.12 183.8 427.663 188.148 427.207 192.343C426.707 197.039 426.229 201.473 422.424 204.952C419.272 207.821 415.729 208.212 412.381 208.212C411.447 208.212 410.49 208.169 409.556 208.147C408.621 208.104 407.664 208.082 406.73 208.082C404.208 208.082 401.252 208.299 398.534 209.908C395.969 211.452 391.796 217.408 386.491 224.973C378.188 236.82 366.84 253.059 356.797 258.233C350.667 261.385 345.841 260.146 341.907 254.407C336.19 246.038 348.885 236.494 360.08 228.103C365.84 223.777 370.818 220.038 372.84 216.821C378.34 208.06 379.253 197.865 380.144 188.017C381.753 170.061 383.166 154.54 412.621 154.54C416.12 154.54 419.838 154.649 423.772 154.757L428.555 154.888C430.598 154.931 432.641 154.953 434.706 154.953C462.922 154.953 488.225 150.627 512.724 146.453C531.984 143.171 550.157 140.062 565.787 140.062C574.156 140.062 581.351 140.953 587.785 142.801C605.545 147.866 624.305 156.888 643.935 167.3V166.083C624.436 155.757 605.785 146.823 588.09 141.779C581.612 139.888 574.308 138.975 565.852 138.975Z" fill="#E8E8E8" fill-opacity="0.11"/>
<path d="M154.764 39.2599C156.438 42.499 160.047 44.1511 165.481 44.1511C166.894 44.1511 168.459 44.0424 170.111 43.8033C176.481 42.9338 182.437 42.6077 187.719 42.3033C189.284 42.2164 190.741 41.9772 192.154 41.586C193.719 41.1294 195.219 40.499 196.675 39.6512C208.435 32.7818 222.326 12.5432 222.782 0.0217285H221.696C221.217 12.0432 207.392 32.1297 196.132 38.7165C194.74 39.5208 193.349 40.1295 191.849 40.5425C190.502 40.9121 189.132 41.1512 187.589 41.2381C182.328 41.5425 176.35 41.8903 169.937 42.7598C162.416 43.7816 157.568 42.412 155.699 38.7817C153.156 33.8687 156.177 24.369 163.568 14.0214C167.59 8.39109 173.002 3.82599 180.176 0.0434671H177.893C171.459 3.71729 166.459 8.08675 162.677 13.391C154.982 24.1951 152.004 33.8905 154.764 39.2599Z" fill="#E8E8E8" fill-opacity="0.11"/>
<path d="M104.028 790.655C136.396 786.96 174.937 748.504 185.263 719.113C203.197 668.093 171.307 627.007 140.461 587.269C110.701 548.922 82.5723 512.705 96.2455 468.598C108.158 430.185 146.634 409.447 176.785 409.447C193.045 409.447 207.088 415.208 216.37 425.686C227.391 438.12 231.717 457.011 228.891 480.315C219.174 560.378 216.283 647.963 305.539 673.788C315.778 676.745 325.886 678.245 335.603 678.245C373.188 678.245 397.165 656.724 410.664 638.659C436.554 604.029 445.554 552.226 433.033 509.77C422.424 473.771 401.534 438.837 369.21 403.012C321.147 349.753 255.672 303.971 169.068 263.015L165.329 261.233C128.896 243.994 91.224 226.169 51.5522 216.343C49.2045 215.756 46.5959 215.06 43.8134 214.321C31.5532 211.06 16.3148 207.017 3.22856 207.017C-2.0103 207.017 -6.55356 207.691 -10.249 209.017C-15.9009 211.038 -19.0746 214.908 -22.1614 218.647C-24.4657 221.43 -26.8351 224.321 -30.2262 226.386C-32.4218 227.734 -36.7259 229.386 -41.2474 231.147C-48.5949 233.973 -56.1814 236.907 -58.5726 239.733C-63.2028 245.168 -61.9203 248.429 -60.703 251.603C-59.8117 253.864 -58.9856 256.016 -60.0725 259.211L-60.9203 261.733C-67.5069 281.102 -67.507 281.102 -82.6801 285.493C-85.6147 286.341 -89.2667 287.406 -93.5926 288.776C-106.092 292.754 -111.222 298.884 -116.178 304.819C-119.983 309.384 -123.591 313.688 -130.395 317.166C-130.569 317.145 -130.786 317.145 -131.004 317.145C-138.829 317.145 -198.174 321.058 -202.739 335.644C-203.956 339.579 -201.304 343.84 -194.805 348.34C-186.675 353.97 -180.523 354.622 -176.588 354.622C-174.675 354.622 -172.936 354.448 -171.262 354.296C-169.828 354.165 -168.48 354.035 -167.197 354.035C-162.415 354.035 -157.589 355.383 -150.981 371.709C-149.351 375.73 -148.09 379.013 -147.046 381.752C-141.916 395.186 -141.742 395.36 -128.721 400.925C-125.482 402.295 -121.461 404.012 -116.352 406.382C-99.5705 414.121 -96.1359 422.903 -91.7883 434.033C-89.4841 439.903 -86.8755 446.576 -81.941 454.076C-76.6587 462.098 -70.4633 468.554 -64.4636 474.793C-53.8337 485.858 -43.7908 496.314 -40.5953 513.77C-35.0521 544.009 -51.4643 572.878 -70.0286 599.573C-79.0281 612.529 -97.5272 627.594 -117.113 643.55C-150.372 670.636 -188.066 701.353 -188.196 729.787C-188.283 746.026 -184.11 758.482 -175.806 766.83C-166.763 775.916 -153.024 780.329 -133.786 780.329C-105.896 780.329 -71.6372 770.916 -41.3996 762.634C-17.5965 756.112 2.9677 750.46 16.0975 750.46C19.0756 750.46 21.5972 750.765 23.5753 751.352C36.2486 755.112 46.2916 763.156 56.0302 770.938C68.9208 781.264 81.1159 791.003 98.528 791.003C100.376 790.981 102.202 790.872 104.028 790.655ZM24.0753 749.873C21.9015 749.221 19.3147 748.917 16.1627 748.917C2.81552 748.917 -17.8356 754.591 -41.7474 761.134C-71.898 769.395 -106.07 778.786 -133.743 778.786C-152.546 778.786 -165.937 774.525 -174.675 765.743C-182.675 757.699 -186.696 745.613 -186.631 729.787C-186.501 702.07 -149.111 671.593 -116.113 644.724C-96.4402 628.702 -77.876 613.572 -68.746 600.442C-50.0079 573.465 -33.4217 544.27 -39.0736 513.488C-42.3561 495.575 -52.5512 484.967 -63.3333 473.728C-69.2895 467.532 -75.4413 461.119 -80.6367 453.228C-85.4843 445.859 -88.0711 439.294 -90.3319 433.468C-94.8099 422.012 -98.3532 412.99 -115.678 404.99C-120.809 402.621 -124.852 400.904 -128.091 399.512C-140.655 394.143 -140.655 394.143 -145.612 381.187C-146.655 378.448 -147.916 375.143 -149.546 371.122C-155.872 355.535 -160.807 352.492 -167.176 352.492C-168.524 352.492 -169.915 352.622 -171.393 352.774C-173.023 352.926 -174.719 353.1 -176.567 353.1C-180.61 353.1 -186.218 352.426 -193.914 347.1C-199.805 343.035 -202.261 339.34 -201.261 336.122C-197.305 323.449 -141.981 318.688 -130.982 318.688C-130.721 318.688 -130.547 318.688 -130.439 318.71L-130.265 318.014L-129.939 318.688C-122.722 315.036 -118.787 310.362 -115.005 305.819C-109.961 299.797 -105.201 294.102 -93.1143 290.254C-88.8102 288.884 -85.18 287.841 -82.2453 286.993C-66.4418 282.428 -66.2461 282.189 -59.4639 262.255L-58.6161 259.733C-57.3553 256.016 -58.377 253.407 -59.2682 251.081C-60.4421 248.081 -61.442 245.494 -57.3988 240.755C-55.2467 238.233 -47.508 235.234 -40.6822 232.603C-36.0738 230.821 -31.7262 229.147 -29.4002 227.734C-25.7917 225.538 -23.3353 222.56 -20.9659 219.669C-17.8791 215.93 -14.9662 212.386 -9.72729 210.517C-6.18401 209.256 -1.81467 208.604 3.25029 208.604C16.1409 208.604 31.2706 212.625 43.4439 215.864C46.2263 216.604 48.8349 217.299 51.2044 217.886C90.7241 227.669 128.331 245.472 164.699 262.668L168.437 264.45C254.846 305.297 320.169 350.97 368.101 404.077C400.273 439.729 421.055 474.467 431.598 510.249C443.988 552.269 435.098 603.529 409.469 637.789C396.165 655.571 372.557 676.767 335.625 676.767C326.06 676.767 316.104 675.288 305.996 672.354C217.891 646.876 220.783 559.987 230.434 480.532C233.325 456.794 228.869 437.49 217.544 424.729C207.979 413.925 193.523 407.99 176.828 407.99C146.134 407.99 106.962 429.099 94.8325 468.228C80.9202 513.075 110.593 551.313 139.309 588.29C169.894 627.702 201.544 668.462 183.871 718.7C173.676 747.678 135.722 785.612 103.897 789.242C102.115 789.438 100.354 789.546 98.6367 789.546C81.7462 789.546 69.7686 779.96 57.0736 769.808C47.2046 761.851 37.0312 753.721 24.0753 749.873Z" fill="#E8E8E8" fill-opacity="0.11"/>
<path d="M141.461 79.1286C148.852 79.1286 157.025 77.3243 164.22 75.7156C167.916 74.8895 171.394 74.1287 174.176 73.7374C179.437 73.02 184.545 72.7374 189.48 72.4548C199.762 71.8679 209.479 71.3027 217.196 66.9115C223.413 63.3681 227.934 57.5639 231.043 49.1075C236.63 33.934 243.521 16.8909 253.281 -0.0217285H252.52C242.825 16.8257 235.977 33.7818 230.413 48.8901C227.369 57.1726 222.935 62.8898 216.848 66.3463C209.261 70.6505 199.631 71.2157 189.436 71.8026C184.48 72.0852 179.372 72.3896 174.089 73.0852C171.285 73.4548 167.785 74.2374 164.068 75.0634C156.895 76.6504 148.786 78.4547 141.461 78.4547C134.265 78.4547 129.179 76.7156 125.896 73.107C117.897 64.3463 121.918 44.3468 124.07 33.5862L124.418 31.8906C126.853 19.4995 130.787 8.95632 136.33 -0.0217285H135.57C130.113 8.95632 126.222 19.4561 123.788 31.7819L123.44 33.4775C121.266 44.3468 117.223 64.5419 125.44 73.5635C128.831 77.3025 134.07 79.1286 141.461 79.1286Z" fill="#E8E8E8" fill-opacity="0.11"/>
<path d="M309.735 0H308.235C305.539 2.8695 303.213 5.49987 301.474 7.89112C277.497 40.4773 266.867 70.5635 268.976 99.8672C269.802 111.258 268.389 118.802 264.693 122.932C262.346 125.562 258.976 126.823 254.433 126.823C248.107 126.823 240.303 124.41 232.065 121.867C224.565 119.541 216.826 117.149 209.522 116.345C204.023 115.736 198.523 115.454 192.675 115.454C174.263 115.454 156.742 118.388 138.222 121.497C135.113 122.019 131.983 122.541 128.831 123.062L128.592 123.106C122.092 124.171 114.723 125.367 107.549 125.367C93.9848 125.367 85.3113 120.867 81.0071 111.606C72.0293 92.2804 74.551 68.9984 76.7465 48.4771C77.0508 45.7163 77.3334 42.9772 77.616 40.2817C79.0942 25.282 81.681 11.9345 85.5069 0.0217386H84.3548C80.5724 11.9345 78.0073 25.2385 76.5291 40.173C76.2683 42.8685 75.9639 45.6076 75.6813 48.3684C73.4641 69.0418 70.9207 92.4761 80.0289 112.084C84.5287 121.758 93.5283 126.475 107.549 126.475C114.81 126.475 122.222 125.258 128.766 124.214L129.005 124.171C132.157 123.649 135.287 123.128 138.396 122.606C156.873 119.519 174.328 116.584 192.675 116.584C198.479 116.584 203.936 116.867 209.392 117.475C216.609 118.258 224.304 120.649 231.739 122.954C240.064 125.54 247.933 127.975 254.433 127.975C259.302 127.975 262.933 126.584 265.498 123.714C269.389 119.367 270.889 111.563 270.041 99.8455C267.954 70.8244 278.519 40.9773 302.344 8.58675C304.213 5.99986 306.756 3.13036 309.735 0Z" fill="#E8E8E8" fill-opacity="0.11"/>
<path d="M302.648 164.779C295.279 169.974 285.192 172.518 271.802 172.518C256.085 172.518 238.477 168.996 222.978 165.887C213.826 164.061 205.196 162.322 198.132 161.583C194.675 161.214 185.393 160.366 173.959 160.366C152.786 160.366 125.614 163.235 116.505 176.909C112.527 182.843 112.375 190.322 116.027 199.104C117.744 203.234 122.179 205.473 126.461 207.647C129.852 209.365 133.352 211.147 135.309 213.778C137.613 216.908 138.982 221.299 140.287 225.56C142.047 231.212 143.852 237.06 147.96 240.516C153.069 244.799 158.655 246.798 165.59 246.798C170.394 246.798 175.307 245.82 180.046 244.885C184.741 243.951 189.589 242.994 194.284 242.994C198.784 242.994 202.697 243.885 206.262 245.712C214.892 250.168 218.544 256.168 222.043 261.95C226.63 269.515 230.956 276.646 245.216 279.993C275.062 286.971 283.258 294.276 303.017 311.906C305.561 314.188 308.3 316.623 311.3 319.253C318.408 325.492 323.669 332.622 328.755 339.514C333.277 345.666 337.972 352.013 344.015 357.839C351.428 364.991 358.428 368.165 365.188 371.23C374.188 375.317 382.709 379.187 390.426 392.447L391.622 394.534C401.339 411.316 411.142 426.859 417.186 426.859C418.164 426.859 418.99 426.49 419.685 425.729C421.859 423.338 422.446 417.012 421.49 406.382C420.924 400.143 416.425 394.578 412.055 389.186C407.36 383.382 402.925 377.882 403.186 371.817C403.512 364.557 407.903 360.97 412.555 357.187C415.968 354.426 419.49 351.557 421.555 347.1C426.511 336.427 427.707 326.884 428.881 317.645C430.489 304.775 432.011 292.645 443.532 278.906C464.118 254.32 493.008 235.755 524.876 226.603C535.484 223.56 545.309 222.082 554.896 222.082C587.459 222.082 610.806 239.799 635.544 258.537C638.348 260.668 641.174 262.798 644.022 264.929V263.037C641.478 261.124 638.957 259.233 636.457 257.342C611.523 238.429 587.959 220.582 554.896 220.582C545.157 220.582 535.201 222.082 524.441 225.169C492.29 234.386 463.14 253.124 442.336 277.95C430.533 292.037 428.989 304.384 427.337 317.471C426.185 326.601 425.011 336.035 420.142 346.47C418.229 350.6 414.838 353.339 411.577 356.013C406.86 359.839 401.991 363.817 401.643 371.774C401.36 378.404 406.186 384.382 410.838 390.165C415.055 395.382 419.403 400.773 419.925 406.534C421.055 419.055 419.794 423.338 418.512 424.707C418.12 425.142 417.686 425.338 417.142 425.338C411.164 425.338 398.36 403.208 392.904 393.773L391.687 391.686C383.731 378.013 374.992 374.056 365.775 369.839C359.123 366.817 352.254 363.687 345.037 356.731C339.103 351.013 334.451 344.709 329.951 338.601C324.821 331.644 319.517 324.449 312.278 318.101C309.278 315.471 306.539 313.036 303.996 310.753C284.018 292.928 275.758 285.558 245.52 278.493C231.869 275.298 227.695 268.428 223.304 261.146C219.674 255.168 215.935 248.994 206.914 244.342C203.131 242.386 199.001 241.451 194.24 241.451C189.415 241.451 184.48 242.429 179.719 243.364C175.046 244.299 170.198 245.233 165.546 245.233C159.003 245.233 153.721 243.342 148.895 239.299C145.134 236.125 143.374 230.495 141.7 225.038C140.352 220.669 138.939 216.147 136.483 212.799C134.331 209.865 130.657 207.995 127.113 206.212C122.896 204.082 118.897 202.06 117.397 198.452C113.962 190.169 114.071 183.17 117.744 177.67C126.505 164.561 153.134 161.801 173.937 161.801C185.306 161.801 194.501 162.648 197.936 163.018C204.914 163.757 213.522 165.496 222.63 167.3C238.216 170.431 255.889 173.952 271.758 173.952C285.475 173.952 295.844 171.322 303.474 165.931C322.495 152.475 317.039 132.193 311.756 112.584C306.126 91.6283 300.3 69.9549 323.734 55.8248C326.538 54.1292 330.299 53.2596 334.885 53.2596C348.906 53.2596 368.645 60.9116 387.731 68.3245C404.36 74.7808 420.055 80.8677 430.272 81.1068C431.75 81.1503 433.206 81.1503 434.685 81.1503C434.685 81.1503 434.685 81.1503 434.706 81.1503C456.662 81.1503 478.856 77.3677 500.333 73.6939C521.767 70.0418 543.918 66.2593 565.787 66.2593C581.09 66.2593 594.916 68.0854 608.024 71.8244C620.153 75.2808 632.109 79.8677 643.935 85.0849V83.4328C632.261 78.2808 620.436 73.7809 608.437 70.3679C595.176 66.5854 581.221 64.7376 565.787 64.7376C543.788 64.7376 521.55 68.5201 500.073 72.1939C478.661 75.846 456.531 79.6286 434.706 79.6286C433.228 79.672 431.793 79.6068 430.315 79.5851C420.359 79.346 404.795 73.3026 388.296 66.9115C369.079 59.4551 349.211 51.7379 334.907 51.7379C329.951 51.7379 326.06 52.6509 322.951 54.5205C298.539 69.2592 304.517 91.4761 310.3 112.976C315.734 133.062 320.821 151.953 302.648 164.779Z" fill="#E8E8E8" fill-opacity="0.11"/>
<path d="M117.788 109.258C122.44 109.258 127.831 108.693 135.83 107.345C156.112 103.954 176.241 102.367 199.197 102.367C204.957 102.367 210.87 102.454 217.305 102.671C219.544 102.737 221.478 102.78 223.239 102.78C233.869 102.78 240.064 101.498 244.629 98.3237C250.085 94.5412 253.346 87.9327 255.476 76.1721C260.389 49.2162 271.193 24.9994 289.475 0H288.67C270.519 24.9342 259.737 49.1293 254.846 76.0634C252.737 87.6283 249.564 94.1282 244.26 97.7803C239.803 100.867 233.717 102.106 223.239 102.106C221.478 102.106 219.544 102.063 217.326 101.998C210.892 101.802 204.979 101.693 199.197 101.693C176.22 101.693 156.047 103.28 135.722 106.693C127.766 108.019 122.396 108.606 117.788 108.606C104.68 108.606 95.289 104.215 92.0066 82.7806C88.8763 62.3029 91.6588 40.6077 94.5282 26.0211C96.3759 16.6083 98.9627 7.95633 102.18 0H101.506C98.2889 7.91286 95.7455 16.4996 93.8978 25.9124C91.0066 40.5425 88.2242 62.3246 91.3762 82.8893C94.2239 101.628 101.876 109.258 117.788 109.258Z" fill="#E8E8E8" fill-opacity="0.11"/>
<path d="M126.744 92.9326C128.787 92.9326 130.983 92.7369 133.309 92.3456C150.591 89.4544 169.068 87.737 188.263 87.2805C192.741 87.1718 197.045 87.2805 201.153 87.3892C203.914 87.4544 206.522 87.5197 209.066 87.5197C216.891 87.5197 224.978 86.911 231.217 82.5415C236.39 78.9112 240.086 72.8678 242.499 64.1072C249.042 40.3034 258.411 19.2387 271.019 0H270.237C257.715 19.1952 248.39 40.1947 241.868 63.9333C239.499 72.5417 235.891 78.4547 230.847 81.998C224.739 86.2806 216.761 86.8675 209.066 86.8675C206.522 86.8675 203.936 86.8023 201.175 86.7371C197.066 86.6284 192.741 86.5197 188.263 86.6284C169.046 87.1066 150.504 88.8022 133.2 91.7152C123.266 93.3891 115.875 91.3891 111.266 85.7806C100.767 73.02 106.419 44.3685 109.462 28.9776C111.593 18.217 114.745 8.60849 118.94 0H118.201C114.049 8.58675 110.919 18.1517 108.81 28.8471C105.745 44.3468 100.071 73.1722 110.745 86.1719C114.44 90.65 119.81 92.9326 126.744 92.9326Z" fill="#E8E8E8" fill-opacity="0.11"/>
</g>
<defs>
<clipPath id="clip0_6_273">
<rect width="414" height="896" fill="white"/>
</clipPath>
</defs>
</svg>
