<svg width="20" height="20" viewBox="0 0 20 20" fill="none" xmlns="http://www.w3.org/2000/svg">
<path d="M18.0892 16.9111L14.3067 13.1287C15.2592 11.922 15.8334 10.4028 15.8334 8.75033C15.8334 4.84449 12.6559 1.66699 8.75008 1.66699C4.84425 1.66699 1.66675 4.84449 1.66675 8.75033C1.66675 12.6562 4.84425 15.8337 8.75008 15.8337C10.4034 15.8337 11.9217 15.2603 13.1284 14.307L16.9109 18.0895C17.0734 18.252 17.2867 18.3337 17.5001 18.3337C17.7134 18.3337 17.9268 18.252 18.0892 18.0895C18.4151 17.7637 18.4151 17.237 18.0892 16.9111ZM3.33341 8.75033C3.33341 5.76366 5.76341 3.33366 8.75008 3.33366C11.7367 3.33366 14.1667 5.76366 14.1667 8.75033C14.1667 11.737 11.7367 14.167 8.75008 14.167C5.76341 14.167 3.33341 11.737 3.33341 8.75033Z" fill="#707070"/>
</svg>
