<svg width="20" height="20" viewBox="0 0 20 20" fill="none" xmlns="http://www.w3.org/2000/svg">
<path d="M15.5601 6.34747L12.1209 9.50019L15.5601 12.6529C16.1466 13.1905 16.1466 14.0596 15.5601 14.5972C15.2677 14.8653 14.8837 15 14.4998 15C14.1158 15 13.7318 14.8653 13.4394 14.5972L10 11.4443L6.56064 14.5972C6.26816 14.8653 5.88423 15 5.50025 15C5.11627 15 4.73233 14.8653 4.43985 14.5972C3.85338 14.0596 3.85338 13.1905 4.43985 12.6529L7.87911 9.50019L4.43985 6.34747C3.85338 5.80987 3.85338 4.94081 4.43985 4.4032C5.02632 3.8656 5.97418 3.8656 6.56064 4.4032L10 7.55609L13.4394 4.4032C14.0258 3.8656 14.9737 3.8656 15.5601 4.4032C16.1466 4.94081 16.1466 5.80987 15.5601 6.34747Z" fill="#707070"/>
</svg>
