<svg width="24" height="24" viewBox="0 0 24 24" fill="none" xmlns="http://www.w3.org/2000/svg">
<g clip-path="url(#clip0_0_44)">
<path d="M22.0573 6.17956C22.045 5.5316 22.0332 4.91947 22.0332 4.32728C22.0332 3.86335 21.6572 3.48722 21.1932 3.48722C17.6005 3.48722 14.8652 2.45473 12.5851 0.237863C12.259 -0.0793438 11.7399 -0.0792318 11.4139 0.237863C9.13404 2.45473 6.39913 3.48722 2.80669 3.48722C2.34276 3.48722 1.96663 3.86335 1.96663 4.32728C1.96663 4.91958 1.95498 5.53193 1.94255 6.18001C1.82741 12.2101 1.6697 20.4686 11.7243 23.9537C11.8135 23.9846 11.9065 24.0001 11.9994 24.0001C12.0924 24.0001 12.1855 23.9846 12.2745 23.9537C22.3299 20.4685 22.1725 12.2098 22.0573 6.17956ZM11.9995 22.2685C3.37637 19.136 3.50674 12.2738 3.62245 6.21205C3.62939 5.84824 3.63611 5.49564 3.64082 5.14998C7.00555 5.00796 9.69621 3.98835 11.9995 1.98183C14.3031 3.98835 16.9942 5.00807 20.3592 5.14998C20.3639 5.49553 20.3706 5.84791 20.3775 6.21149C20.4931 12.2735 20.6234 19.1359 11.9995 22.2685Z" fill="black"/>
<path d="M14.8924 9.08194L10.8378 13.1363L9.1076 11.4061C8.77952 11.0781 8.2476 11.0781 7.91964 11.4061C7.59157 11.7343 7.59157 12.2661 7.91964 12.5942L10.2438 14.9183C10.4078 15.0823 10.6228 15.1643 10.8378 15.1643C11.0527 15.1643 11.2678 15.0823 11.4318 14.9183L16.0802 10.27C16.4084 9.94193 16.4084 9.41001 16.0803 9.08205C15.7524 8.75398 15.2204 8.75386 14.8924 9.08194Z" fill="black"/>
</g>
<defs>
<clipPath id="clip0_0_44">
<rect width="24" height="24" fill="white"/>
</clipPath>
</defs>
</svg>
