<svg width="24" height="24" viewBox="0 0 24 24" fill="none" xmlns="http://www.w3.org/2000/svg">
<path d="M7.5 7C7.5 4.243 9.743 2 12.5 2C15.257 2 17.5 4.243 17.5 7C17.5 9.757 15.257 12 12.5 12C9.743 12 7.5 9.757 7.5 7ZM16.617 13.071C16.058 12.929 15.45 13.0091 14.947 13.2891C13.429 14.1331 11.571 14.1331 10.053 13.2891C9.55098 13.0101 8.942 12.931 8.383 13.071C6.391 13.574 5 15.382 5 17.467V18.478C5 19.116 5.16998 19.7399 5.49298 20.2839C5.75598 20.7259 6.24902 21.001 6.77802 21.001H18.221C18.75 21.001 19.243 20.727 19.506 20.283C19.829 19.74 19.999 19.116 19.999 18.478V17.467C20 15.382 18.609 13.574 16.617 13.071Z" fill="#BABABA"/>
</svg>
