<svg width="24" height="24" viewBox="0 0 24 24" fill="none" xmlns="http://www.w3.org/2000/svg">
<g clip-path="url(#clip0_0_265)">
<path d="M22.1387 3.78004C20.4875 3.73481 19.1589 2.40107 19.1138 0.743593V0.74341C19.1018 0.300294 18.7458 -0.046875 18.3032 -0.046875H5.70371C5.26115 -0.046875 4.90501 0.300294 4.8931 0.74341C4.84824 2.40107 3.51944 3.73481 1.86838 3.78004C1.42526 3.79212 1.07809 4.14826 1.07809 4.59065V8.47524C1.07809 11.8402 2.08628 15.0821 3.99405 17.8501C5.90165 20.6181 8.56859 22.7095 11.7065 23.8986C11.8022 23.9349 11.9029 23.9532 12.0035 23.9532C12.1042 23.9532 12.2047 23.935 12.3005 23.8986C15.4385 22.7095 18.1055 20.6181 20.0129 17.8501C21.9207 15.0821 22.9288 11.8402 22.9288 8.47524V4.59065C22.9288 4.14826 22.5817 3.79212 22.1387 3.78004ZM21.522 8.47524C21.522 11.5538 20.5996 14.5196 18.8546 17.0517C17.1509 19.5237 14.7856 21.4056 12.0035 22.5052C9.22136 21.4056 6.85582 19.5237 5.15238 17.0517C3.4072 14.5196 2.4849 11.5538 2.4849 8.47524V5.13337C4.41904 4.8307 5.9456 3.29957 6.24699 1.35993H17.76C18.0613 3.29938 19.5877 4.83051 21.522 5.13337V8.47524Z" fill="black"/>
<path d="M15.247 9.36231H14.7722V7.65723C14.7722 6.13068 13.5302 4.88867 12.0035 4.88867C10.4769 4.88867 9.23493 6.13068 9.23493 7.65723V9.36231H8.75995C8.26666 9.36231 7.8653 9.76368 7.8653 10.257V16.744C7.8653 17.2373 8.26666 17.6389 8.75995 17.6389H15.247C15.7403 17.6389 16.1419 17.2373 16.1419 16.744V10.257C16.1419 9.76368 15.7405 9.36231 15.247 9.36231ZM10.6417 7.65723C10.6417 6.90631 11.2526 6.29529 12.0035 6.29529C12.7544 6.29529 13.3654 6.90631 13.3654 7.65723V9.36213H10.6417V7.65723ZM9.2721 16.2319V10.7971H14.7351V16.2319H9.2721Z" fill="black"/>
<path d="M12.0035 11.627C11.6151 11.627 11.3002 11.9419 11.3002 12.3303V14.6718C11.3002 15.0602 11.6151 15.3751 12.0035 15.3751C12.392 15.3751 12.707 15.0602 12.707 14.6718V12.3303C12.707 11.9419 12.392 11.627 12.0035 11.627Z" fill="black"/>
</g>
<defs>
<clipPath id="clip0_0_265">
<rect width="24" height="24" fill="white"/>
</clipPath>
</defs>
</svg>
