<svg width="78" height="85" viewBox="0 0 78 85" fill="none" xmlns="http://www.w3.org/2000/svg">
<path d="M50.2543 38.153C55.8591 34.4217 59.5557 28.0536 59.5557 20.8164C59.5557 9.32055 50.2352 0 38.7393 0C27.2435 0 17.9229 9.32055 17.9229 20.8164C17.9229 28.0536 21.6196 34.4217 27.2244 38.153C27.2244 38.153 27.2261 38.1547 27.2279 38.1547C27.2261 38.1547 27.2261 38.153 27.2261 38.153C13.81 42.1966 3.36358 53.0853 0 66.7842L0.00173457 66.786C0.5499 67.4469 1.11888 68.0922 1.70001 68.7254C1.84052 68.8798 1.98797 69.0272 2.13195 69.1781C2.5795 69.6534 3.03226 70.1218 3.49716 70.5798C3.68971 70.7689 3.88573 70.951 4.08175 71.1366C4.51196 71.546 4.94737 71.9502 5.39145 72.344C5.61176 72.5382 5.83553 72.7308 6.05757 72.9216C6.49298 73.2946 6.9336 73.6606 7.38289 74.0179C7.61881 74.207 7.85646 74.3926 8.09411 74.5783C8.5486 74.9287 9.01004 75.2687 9.47667 75.6017C9.71779 75.7735 9.95545 75.9487 10.2 76.1169C10.6927 76.4569 11.194 76.7831 11.6988 77.1057C11.9261 77.2497 12.1481 77.3989 12.3771 77.5411C12.9599 77.9002 13.5532 78.2437 14.1517 78.5802C14.3095 78.6687 14.4639 78.7641 14.6235 78.8508C15.3972 79.2741 16.183 79.68 16.981 80.0634C17.0001 80.0721 17.0209 80.0807 17.04 80.0894C17.8015 80.4537 18.5752 80.7989 19.3575 81.125C19.6004 81.2274 19.8484 81.3176 20.093 81.4147C20.6585 81.6402 21.2241 81.8623 21.8 82.067C22.1053 82.1762 22.4141 82.2751 22.7211 82.3792C23.245 82.5561 23.7723 82.7279 24.3032 82.8857C24.6397 82.9864 24.978 83.08 25.318 83.1737C25.8314 83.3159 26.3484 83.4512 26.8705 83.5779C27.2227 83.6629 27.5765 83.7444 27.9322 83.8225C28.4543 83.937 28.9782 84.041 29.5055 84.1382C29.8629 84.2041 30.2185 84.2718 30.5793 84.329C31.124 84.4175 31.6722 84.4921 32.2221 84.5632C32.569 84.6083 32.9142 84.6586 33.2629 84.695C33.87 84.7609 34.4824 84.8078 35.0947 84.8512C35.3914 84.872 35.6845 84.9032 35.9812 84.9188C36.8954 84.9708 37.813 85.0003 38.7393 85.0003C39.6657 85.0003 40.5833 84.9709 41.4975 84.9223C41.7941 84.9067 42.089 84.8754 42.3839 84.8546C42.998 84.8113 43.6104 84.7644 44.2158 84.6985C44.5645 84.6603 44.9097 84.6118 45.2566 84.5667C45.8065 84.4955 46.3547 84.421 46.8994 84.3325C47.2585 84.2735 47.6158 84.2076 47.9732 84.1417C48.5005 84.0445 49.0261 83.9404 49.5465 83.826C49.9021 83.7479 50.256 83.6663 50.6082 83.5814C51.1286 83.4547 51.6455 83.3194 52.1607 83.1772C52.499 83.0835 52.839 82.9898 53.1755 82.8892C53.7081 82.7296 54.2337 82.5579 54.7576 82.3827C55.0646 82.2786 55.3751 82.1797 55.6787 82.0704C56.2529 81.864 56.8201 81.6437 57.3856 81.4182C57.6302 81.321 57.8783 81.2291 58.1212 81.1285C58.9 80.8024 59.6702 80.4606 60.4283 80.0963C60.4509 80.0859 60.4751 80.0755 60.4977 80.0651C61.2957 79.6817 62.0815 79.2758 62.8552 78.8526C63.0147 78.7658 63.1691 78.6704 63.327 78.5819C63.9255 78.2454 64.5187 77.9019 65.1016 77.5429C65.3306 77.4023 65.5543 77.2532 65.7799 77.1075C66.2847 76.7848 66.786 76.4569 67.2786 76.1187C67.5215 75.9504 67.7609 75.7769 68.002 75.6035C68.4686 75.2687 68.9301 74.9287 69.3846 74.58C69.6239 74.3961 69.8599 74.2088 70.0958 74.0197C70.5433 73.6623 70.9857 73.2963 71.4211 72.9234C71.6449 72.7325 71.8686 72.54 72.0872 72.3457C72.5313 71.9519 72.9667 71.5477 73.3969 71.1383C73.5912 70.9527 73.789 70.7689 73.9815 70.5815C74.4464 70.1235 74.9009 69.6552 75.3467 69.1799C75.489 69.0272 75.6364 68.8798 75.7787 68.7271C76.3598 68.0939 76.9288 67.4486 77.4769 66.7877L77.4787 66.786C74.1168 53.0853 63.6705 42.1966 50.2543 38.153Z" fill="white"/>
</svg>
