<svg width="56" height="56" viewBox="0 0 56 56" fill="none" xmlns="http://www.w3.org/2000/svg">
<path d="M27.9998 11.9518C26.905 11.9518 26.0176 11.0645 26.0176 9.96964V1.9822C26.0176 0.887359 26.905 0 27.9998 0C29.0945 0 29.982 0.887359 29.982 1.9822V9.96975C29.982 11.0645 29.0945 11.9518 27.9998 11.9518Z" fill="black"/>
<path opacity="0.52" d="M27.9998 56C26.905 56 26.0176 55.1127 26.0176 54.0178V46.0303C26.0176 44.9355 26.905 44.0481 27.9998 44.0481C29.0945 44.0481 29.982 44.9355 29.982 46.0303V54.0178C29.982 55.1127 29.0945 56 27.9998 56Z" fill="black"/>
<path opacity="0.58" d="M37.8329 54.0709C37.0513 54.0709 36.3106 53.6055 35.997 52.8374L32.9786 45.4423C32.5648 44.4287 33.0512 43.2716 34.0647 42.8581C35.0775 42.4439 36.2351 42.9305 36.6489 43.9439L39.6673 51.3391C40.0811 52.3527 39.5947 53.5098 38.5812 53.9233C38.336 54.0236 38.0824 54.0709 37.8329 54.0709Z" fill="black"/>
<path opacity="0.94" d="M34.813 13.2895C34.5636 13.2895 34.3099 13.2422 34.0647 13.1419C33.0511 12.7285 32.5648 11.5713 32.9786 10.5577L35.997 3.16253C36.4107 2.14895 37.5676 1.66125 38.5812 2.07655C39.5948 2.48998 40.0811 3.64717 39.6673 4.66075L36.6489 12.0559C36.3353 12.8242 35.5946 13.2895 34.813 13.2895Z" fill="black"/>
<path opacity="0.46" d="M18.1666 54.0708C17.9171 54.0708 17.6634 54.0236 17.4182 53.9233C16.4046 53.5098 15.9184 52.3526 16.3321 51.3391L19.3505 43.9439C19.7643 42.9303 20.9212 42.4437 21.9347 42.858C22.9483 43.2714 23.4346 44.4286 23.0208 45.4422L20.0024 52.8374C19.6888 53.6055 18.9481 54.0708 18.1666 54.0708Z" fill="black"/>
<path opacity="0.36" d="M3.91212 39.8148C3.13052 39.8148 2.38984 39.3499 2.07626 38.5814C1.66249 37.5678 2.14877 36.4108 3.16224 35.9972L10.5573 32.9787C11.5708 32.5637 12.7279 33.0507 13.1416 34.0646C13.5554 35.0781 13.0691 36.2352 12.0556 36.6488L4.66057 39.6673C4.41535 39.7676 4.1616 39.8148 3.91212 39.8148Z" fill="black"/>
<path opacity="0.82" d="M44.6939 23.169C43.9123 23.169 43.1716 22.704 42.858 21.9355C42.4442 20.922 42.9305 19.7649 43.944 19.3513L51.339 16.3328C52.3522 15.9182 53.5097 16.4048 53.9234 17.4188C54.3371 18.4324 53.8508 19.5894 52.8374 20.003L45.4423 23.0215C45.1971 23.1217 44.9433 23.169 44.6939 23.169Z" fill="black"/>
<path opacity="0.24" d="M11.3058 23.1689C11.0563 23.1689 10.8026 23.1216 10.5573 23.0213L3.16226 20.0028C2.14868 19.5894 1.66251 18.4322 2.07627 17.4186C2.48993 16.405 3.64668 15.9189 4.66058 16.3326L12.0556 19.3512C13.0692 19.7646 13.5554 20.9218 13.1416 21.9354C12.8281 22.7035 12.0873 23.1689 11.3058 23.1689Z" fill="black"/>
<path opacity="0.7" d="M52.0875 39.8148C51.838 39.8148 51.5844 39.7676 51.3391 39.6673L43.944 36.6488C42.9304 36.2353 42.4442 35.0781 42.858 34.0646C43.2718 33.0517 44.4285 32.5651 45.4423 32.9787L52.8374 35.9972C53.851 36.4107 54.3371 37.5678 53.9234 38.5814C53.6098 39.3494 52.869 39.8148 52.0875 39.8148Z" fill="black"/>
<path opacity="0.88" d="M40.7492 17.2328C40.2419 17.2328 39.7348 17.0392 39.3477 16.6522C38.5736 15.8782 38.5735 14.6231 39.3476 13.8492L44.9955 8.20118C45.7695 7.42692 47.0246 7.42692 47.7986 8.20118C48.5727 8.97512 48.5728 10.2302 47.7988 11.0041L42.1509 16.6522C41.7639 17.0392 41.2565 17.2328 40.7492 17.2328Z" fill="black"/>
<path opacity="0.4" d="M9.60224 48.3795C9.09496 48.3795 8.58779 48.186 8.20071 47.7989C7.42666 47.0249 7.42655 45.7699 8.2006 44.9959L13.8485 39.3479C14.6226 38.5736 15.8776 38.5736 16.6517 39.3479C17.4257 40.1218 17.4258 41.3769 16.6518 42.1509L11.0039 47.7989C10.6168 48.186 10.1094 48.3795 9.60224 48.3795Z" fill="black"/>
<path opacity="0.18" d="M15.2502 17.2328C14.7428 17.2328 14.2357 17.0392 13.8485 16.6522L8.20064 11.0041C7.42659 10.2302 7.42659 8.97512 8.20075 8.20118C8.97469 7.42724 10.2298 7.42724 11.0039 8.20118L16.6518 13.8492C17.4259 14.6231 17.4259 15.8782 16.6517 16.6522C16.2647 17.0392 15.7574 17.2328 15.2502 17.2328Z" fill="black"/>
<path opacity="0.64" d="M46.3971 48.3795C45.8897 48.3795 45.3827 48.186 44.9955 47.7989L39.3476 42.1509C38.5735 41.3769 38.5736 40.1218 39.3477 39.3479C40.1217 38.574 41.3768 38.574 42.1509 39.3479L47.7988 44.9959C48.5728 45.7699 48.5728 47.0249 47.7986 47.7989C47.4118 48.186 46.9044 48.3795 46.3971 48.3795Z" fill="black"/>
<path opacity="0.3" d="M9.96942 29.9822H1.9822C0.887469 29.9822 0 29.0949 0 28C0 26.9052 0.887469 26.0178 1.9822 26.0178H9.96942C11.0642 26.0178 11.9516 26.9052 11.9516 28C11.9516 29.0949 11.0642 29.9822 9.96942 29.9822Z" fill="black"/>
<path opacity="0.76" d="M54.0175 29.9822H46.0301C44.9353 29.9822 44.0479 29.0949 44.0479 28C44.0479 26.9052 44.9353 26.0178 46.0301 26.0178H54.0175C55.1122 26.0178 55.9997 26.9052 55.9997 28C55.9997 29.0949 55.1123 29.9822 54.0175 29.9822Z" fill="black"/>
</svg>
