<svg width="20" height="20" viewBox="0 0 20 20" fill="none" xmlns="http://www.w3.org/2000/svg">
<path d="M17.5 3.7502H13.0625C12.9191 3.04377 12.5358 2.40866 11.9777 1.95247C11.4195 1.49628 10.7208 1.24707 10 1.24707C9.27915 1.24707 8.58047 1.49628 8.02234 1.95247C7.46421 2.40866 7.08095 3.04377 6.9375 3.7502H2.5C2.33424 3.7502 2.17527 3.81605 2.05806 3.93326C1.94085 4.05047 1.875 4.20944 1.875 4.3752C1.875 4.54096 1.94085 4.69993 2.05806 4.81714C2.17527 4.93435 2.33424 5.0002 2.5 5.0002H3.75V15.6252C3.75 16.454 4.07924 17.2489 4.66529 17.8349C5.25134 18.421 6.0462 18.7502 6.875 18.7502H13.125C13.9538 18.7502 14.7487 18.421 15.3347 17.8349C15.9208 17.2489 16.25 16.454 16.25 15.6252V5.0002H17.5C17.6658 5.0002 17.8247 4.93435 17.9419 4.81714C18.0592 4.69993 18.125 4.54096 18.125 4.3752C18.125 4.20944 18.0592 4.05047 17.9419 3.93326C17.8247 3.81605 17.6658 3.7502 17.5 3.7502ZM10 2.5002C10.3868 2.50129 10.7639 2.622 11.0794 2.84579C11.395 3.06958 11.6336 3.38548 11.7625 3.7502H8.2375C8.36645 3.38548 8.60504 3.06958 8.92058 2.84579C9.23612 2.622 9.61316 2.50129 10 2.5002ZM15 15.6252C15 16.1225 14.8025 16.5994 14.4508 16.951C14.0992 17.3027 13.6223 17.5002 13.125 17.5002H6.875C6.37772 17.5002 5.90081 17.3027 5.54917 16.951C5.19754 16.5994 5 16.1225 5 15.6252V5.0002H15V15.6252ZM8.75 8.7502V13.7502C8.75 13.916 8.68415 14.0749 8.56694 14.1921C8.44973 14.3094 8.29076 14.3752 8.125 14.3752C7.95924 14.3752 7.80027 14.3094 7.68306 14.1921C7.56585 14.0749 7.5 13.916 7.5 13.7502V8.7502C7.5 8.58444 7.56585 8.42547 7.68306 8.30826C7.80027 8.19105 7.95924 8.1252 8.125 8.1252C8.29076 8.1252 8.44973 8.19105 8.56694 8.30826C8.68415 8.42547 8.75 8.58444 8.75 8.7502ZM12.5 8.7502V13.7502C12.5 13.916 12.4342 14.0749 12.3169 14.1921C12.1997 14.3094 12.0408 14.3752 11.875 14.3752C11.7092 14.3752 11.5503 14.3094 11.4331 14.1921C11.3158 14.0749 11.25 13.916 11.25 13.7502V8.7502C11.25 8.58444 11.3158 8.42547 11.4331 8.30826C11.5503 8.19105 11.7092 8.1252 11.875 8.1252C12.0408 8.1252 12.1997 8.19105 12.3169 8.30826C12.4342 8.42547 12.5 8.58444 12.5 8.7502Z" fill="white"/>
</svg>
