<svg width="91" height="127" viewBox="0 0 91 127" fill="none" xmlns="http://www.w3.org/2000/svg">
<g clip-path="url(#clip0_7_379)">
<path fill-rule="evenodd" clip-rule="evenodd" d="M45.501 108.402C20.3701 108.402 0 88.2999 0 63.4995C0 50.9677 5.20665 39.6347 13.5963 31.4899L13.4911 31.5879L45.501 0V18.5989V32.0144V108.402Z" fill="#19A9F9"/>
<path fill-rule="evenodd" clip-rule="evenodd" d="M45.501 18.5989C70.6299 18.5989 91 38.7011 91 63.4995C91 76.0352 85.7934 87.3653 77.4037 95.512L77.5089 95.4121L45.501 127V108.402V94.9847V18.5989Z" fill="#094173"/>
<path fill-rule="evenodd" clip-rule="evenodd" d="M64.9784 68.7193C62.0583 68.7193 59.69 66.3822 59.69 63.4995C59.69 60.6178 62.0583 58.2816 64.9784 58.2816C67.8976 58.2816 70.2659 60.6178 70.2659 63.4995C70.2659 66.3822 67.8976 68.7193 64.9784 68.7193ZM45.501 68.7193C42.5789 68.7193 40.2116 66.3822 40.2116 63.4995C40.2116 60.6178 42.5789 58.2816 45.501 58.2816C48.4202 58.2816 50.7884 60.6178 50.7884 63.4995C50.7884 66.3822 48.4211 68.7193 45.501 68.7193ZM26.0225 68.7193C23.1024 68.7193 20.7351 66.3822 20.7351 63.4995C20.7351 60.6178 23.1024 58.2816 26.0225 58.2816C28.9427 58.2816 31.3119 60.6178 31.3119 63.4995C31.3119 66.3822 28.9427 68.7193 26.0225 68.7193Z" fill="white"/>
</g>
<defs>
<clipPath id="clip0_7_379">
<rect width="91" height="127" fill="white"/>
</clipPath>
</defs>
</svg>
