<svg width="44" height="5" viewBox="0 0 44 5" fill="none" xmlns="http://www.w3.org/2000/svg">
<path d="M18.2807 4.85226C17.659 4.80835 17.039 4.76093 16.4261 4.6942C17.0408 4.76093 17.6607 4.80835 18.2807 4.85226Z" fill="#F9EDE0"/>
<path d="M9.95255 3.55956C9.42568 3.43135 8.90232 3.29436 8.38072 3.15035C8.90232 3.29612 9.42568 3.43311 9.95255 3.55956Z" fill="#F9EDE0"/>
<path d="M15.3723 4.56124C14.8156 4.48923 14.2606 4.41372 13.7092 4.32415C14.2589 4.41372 14.8156 4.48748 15.3723 4.56124Z" fill="#F9EDE0"/>
<path d="M2.34633 1.07633C1.55427 0.744398 0.770988 0.396663 0 0.0278528C0.772744 0.396663 1.55603 0.746154 2.34633 1.07633Z" fill="#F9EDE0"/>
<path d="M32.9137 3.80887C32.385 3.92479 31.8546 4.03016 31.3207 4.12851C31.8529 4.03016 32.385 3.92479 32.9137 3.80887Z" fill="#F9EDE0"/>
<path d="M30.2337 4.32216C29.6822 4.41173 29.1273 4.48725 28.5705 4.55926C29.1255 4.48725 29.6822 4.41349 30.2337 4.32216Z" fill="#F9EDE0"/>
<path d="M43.9305 0.0318318C43.163 0.398885 42.3833 0.746616 41.5947 1.07679C42.3833 0.746616 43.163 0.400642 43.9305 0.0318318Z" fill="#F9EDE0"/>
<path d="M41.5948 1.07631C41.3489 1.17993 41.0978 1.27125 40.8501 1.3696C41.096 1.27125 41.3472 1.17993 41.5948 1.07631Z" fill="#F9EDE0"/>
<path d="M44 0C43.9774 0.010432 43.9531 0.0208668 43.9305 0.0312989C43.9531 0.0208668 43.9774 0.0121707 44 0Z" fill="#F9EDE0"/>
<path d="M13.7074 4.32236C13.3439 4.26265 12.9821 4.19592 12.6203 4.12918C12.9839 4.19592 13.3439 4.26441 13.7074 4.32236Z" fill="#F9EDE0"/>
<path d="M19.1781 4.92086C18.8778 4.90505 18.5792 4.87343 18.2807 4.85236C18.581 4.87343 18.8778 4.90505 19.1781 4.92086Z" fill="#F9EDE0"/>
<path d="M3.09274 1.37159C2.84511 1.27324 2.59397 1.18016 2.34809 1.0783C2.59397 1.18016 2.84511 1.27149 3.09274 1.37159Z" fill="#F9EDE0"/>
<path d="M5.75346 2.34838C5.44261 2.24301 5.12824 2.1429 4.8209 2.03226C5.12824 2.1429 5.44085 2.24301 5.75346 2.34838Z" fill="#F9EDE0"/>
<path d="M28.5687 4.5609C28.2175 4.60656 27.868 4.65749 27.515 4.69437C27.868 4.65574 28.2175 4.60656 28.5687 4.5609Z" fill="#F9EDE0"/>
<path d="M33.9885 3.56019C33.632 3.64624 33.2737 3.72878 32.9137 3.80782C33.2737 3.73054 33.632 3.648 33.9885 3.56019Z" fill="#F9EDE0"/>
<path d="M8.38254 3.15242C8.04007 3.05758 7.69584 2.96274 7.35513 2.86088C7.69584 2.96274 8.03831 3.05758 8.38254 3.15242Z" fill="#F9EDE0"/>
</svg>
