<svg width="20" height="20" viewBox="0 0 20 20" fill="none" xmlns="http://www.w3.org/2000/svg">
<path d="M17.1051 4.4444C17.1051 5.69092 16.0947 6.70143 14.8482 6.70143C13.6017 6.70143 12.5913 5.69092 12.5913 4.4444C12.5913 3.19801 13.6017 2.1875 14.8482 2.1875C16.0947 2.1875 17.1051 3.19801 17.1051 4.4444Z" fill="#707070"/>
<path d="M14.848 7.22234C13.3161 7.22234 12.0703 5.97646 12.0703 4.44448C12.0703 2.91263 13.3161 1.66675 14.848 1.66675C16.38 1.66675 17.6258 2.91263 17.6258 4.44448C17.6258 5.97646 16.38 7.22234 14.848 7.22234ZM14.848 2.70841C13.8904 2.70841 13.112 3.48763 13.112 4.44448C13.112 5.40146 13.8904 6.18068 14.848 6.18068C15.8057 6.18068 16.5841 5.40146 16.5841 4.44448C16.5841 3.48763 15.8057 2.70841 14.848 2.70841Z" fill="#707070"/>
<path d="M17.1051 15.5556C17.1051 16.802 16.0947 17.8125 14.8482 17.8125C13.6017 17.8125 12.5913 16.802 12.5913 15.5556C12.5913 14.3091 13.6017 13.2986 14.8482 13.2986C16.0947 13.2986 17.1051 14.3091 17.1051 15.5556Z" fill="#707070"/>
<path d="M14.848 18.3334C13.3161 18.3334 12.0703 17.0875 12.0703 15.5557C12.0703 14.0237 13.3161 12.7778 14.848 12.7778C16.38 12.7778 17.6258 14.0237 17.6258 15.5557C17.6258 17.0875 16.38 18.3334 14.848 18.3334ZM14.848 13.8195C13.8904 13.8195 13.112 14.5987 13.112 15.5557C13.112 16.5125 13.8904 17.2918 14.848 17.2918C15.8057 17.2918 16.5841 16.5125 16.5841 15.5557C16.5841 14.5987 15.8057 13.8195 14.848 13.8195Z" fill="#707070"/>
<path d="M7.38282 10.0001C7.38282 11.2466 6.37231 12.257 5.1258 12.257C3.87941 12.257 2.8689 11.2466 2.8689 10.0001C2.8689 8.75355 3.87941 7.74316 5.1258 7.74316C6.37231 7.74316 7.38282 8.75355 7.38282 10.0001Z" fill="#707070"/>
<path d="M5.12588 12.7779C3.59402 12.7779 2.34814 11.5321 2.34814 10.0001C2.34814 8.46816 3.59402 7.22241 5.12588 7.22241C6.65786 7.22241 7.90374 8.46816 7.90374 10.0001C7.90374 11.5321 6.65786 12.7779 5.12588 12.7779ZM5.12588 8.26408C4.16826 8.26408 3.38981 9.04317 3.38981 10.0001C3.38981 10.9571 4.16826 11.7362 5.12588 11.7362C6.08362 11.7362 6.86207 10.9571 6.86207 10.0001C6.86207 9.04317 6.08362 8.26408 5.12588 8.26408Z" fill="#707070"/>
<path d="M6.76569 9.66665C6.52397 9.66665 6.28924 9.54089 6.16145 9.31595C5.97186 8.98331 6.08858 8.55899 6.42123 8.36864L12.8649 4.69509C13.1975 4.5041 13.6218 4.62083 13.8122 4.95474C14.0018 5.28738 13.8851 5.7117 13.5524 5.90206L7.10863 9.57561C7.0003 9.63741 6.8823 9.66665 6.76569 9.66665Z" fill="#707070"/>
<path d="M13.2085 15.396C13.0917 15.396 12.9737 15.3668 12.8654 15.305L6.42162 11.6314C6.08898 11.4418 5.97238 11.0175 6.16197 10.6841C6.35079 10.3508 6.77575 10.2335 7.10915 10.4244L13.5529 14.098C13.8856 14.2876 14.0022 14.7119 13.8126 15.0453C13.6842 15.2702 13.4494 15.396 13.2085 15.396Z" fill="#707070"/>
</svg>
